<?xml version="1.0" encoding="UTF-8"?><svg xmlns="http://www.w3.org/2000/svg" xmlns:xlink="http://www.w3.org/1999/xlink" contentScriptType="text/ecmascript" width="147" zoomAndPan="magnify" contentStyleType="text/css" viewBox="0 0 147 44.999999" height="44.999999" preserveAspectRatio="xMidYMid meet" version="1.0"><defs><clipPath id="clip-0"><path d="M 2.191406 2.339844 L 5 2.339844 L 5 5 L 2.191406 5 Z M 2.191406 2.339844 " clip-rule="nonzero"/></clipPath><clipPath id="clip-1"><path d="M 8 2.339844 L 11 2.339844 L 11 5 L 8 5 Z M 8 2.339844 " clip-rule="nonzero"/></clipPath><clipPath id="clip-2"><path d="M 14 2.339844 L 17 2.339844 L 17 5 L 14 5 Z M 14 2.339844 " clip-rule="nonzero"/></clipPath><clipPath id="clip-3"><path d="M 21 2.339844 L 24 2.339844 L 24 5 L 21 5 Z M 21 2.339844 " clip-rule="nonzero"/></clipPath><clipPath id="clip-4"><path d="M 27 2.339844 L 30 2.339844 L 30 5 L 27 5 Z M 27 2.339844 " clip-rule="nonzero"/></clipPath><clipPath id="clip-5"><path d="M 33 2.339844 L 36 2.339844 L 36 5 L 33 5 Z M 33 2.339844 " clip-rule="nonzero"/></clipPath><clipPath id="clip-6"><path d="M 39 2.339844 L 43 2.339844 L 43 5 L 39 5 Z M 39 2.339844 " clip-rule="nonzero"/></clipPath><clipPath id="clip-7"><path d="M 2.191406 8 L 5 8 L 5 11 L 2.191406 11 Z M 2.191406 8 " clip-rule="nonzero"/></clipPath><clipPath id="clip-8"><path d="M 2.191406 14 L 5 14 L 5 18 L 2.191406 18 Z M 2.191406 14 " clip-rule="nonzero"/></clipPath><clipPath id="clip-9"><path d="M 2.191406 21 L 5 21 L 5 24 L 2.191406 24 Z M 2.191406 21 " clip-rule="nonzero"/></clipPath><clipPath id="clip-10"><path d="M 2.191406 27 L 5 27 L 5 30 L 2.191406 30 Z M 2.191406 27 " clip-rule="nonzero"/></clipPath><clipPath id="clip-11"><path d="M 2.191406 33 L 5 33 L 5 36 L 2.191406 36 Z M 2.191406 33 " clip-rule="nonzero"/></clipPath><clipPath id="clip-12"><path d="M 2.191406 39 L 5 39 L 5 42.089844 L 2.191406 42.089844 Z M 2.191406 39 " clip-rule="nonzero"/></clipPath><clipPath id="clip-13"><path d="M 8 39 L 11 39 L 11 42.089844 L 8 42.089844 Z M 8 39 " clip-rule="nonzero"/></clipPath><clipPath id="clip-14"><path d="M 14 39 L 17 39 L 17 42.089844 L 14 42.089844 Z M 14 39 " clip-rule="nonzero"/></clipPath><clipPath id="clip-15"><path d="M 21 39 L 24 39 L 24 42.089844 L 21 42.089844 Z M 21 39 " clip-rule="nonzero"/></clipPath><clipPath id="clip-16"><path d="M 27 39 L 30 39 L 30 42.089844 L 27 42.089844 Z M 27 39 " clip-rule="nonzero"/></clipPath><clipPath id="clip-17"><path d="M 33 39 L 36 39 L 36 42.089844 L 33 42.089844 Z M 33 39 " clip-rule="nonzero"/></clipPath><clipPath id="clip-18"><path d="M 39 39 L 43 39 L 43 42.089844 L 39 42.089844 Z M 39 39 " clip-rule="nonzero"/></clipPath><clipPath id="clip-19"><path d="M 46 2.339844 L 49 2.339844 L 49 5 L 46 5 Z M 46 2.339844 " clip-rule="nonzero"/></clipPath><clipPath id="clip-20"><path d="M 52 2.339844 L 55 2.339844 L 55 5 L 52 5 Z M 52 2.339844 " clip-rule="nonzero"/></clipPath><clipPath id="clip-21"><path d="M 58 2.339844 L 62 2.339844 L 62 5 L 58 5 Z M 58 2.339844 " clip-rule="nonzero"/></clipPath><clipPath id="clip-22"><path d="M 65 2.339844 L 68 2.339844 L 68 5 L 65 5 Z M 65 2.339844 " clip-rule="nonzero"/></clipPath><clipPath id="clip-23"><path d="M 71 2.339844 L 74 2.339844 L 74 5 L 71 5 Z M 71 2.339844 " clip-rule="nonzero"/></clipPath><clipPath id="clip-24"><path d="M 77 2.339844 L 80 2.339844 L 80 5 L 77 5 Z M 77 2.339844 " clip-rule="nonzero"/></clipPath><clipPath id="clip-25"><path d="M 83 2.339844 L 86.191406 2.339844 L 86.191406 5 L 83 5 Z M 83 2.339844 " clip-rule="nonzero"/></clipPath><clipPath id="clip-26"><path d="M 83 8 L 86.191406 8 L 86.191406 11 L 83 11 Z M 83 8 " clip-rule="nonzero"/></clipPath><clipPath id="clip-27"><path d="M 83 14 L 86.191406 14 L 86.191406 18 L 83 18 Z M 83 14 " clip-rule="nonzero"/></clipPath><clipPath id="clip-28"><path d="M 83 21 L 86.191406 21 L 86.191406 24 L 83 24 Z M 83 21 " clip-rule="nonzero"/></clipPath><clipPath id="clip-29"><path d="M 83 27 L 86.191406 27 L 86.191406 30 L 83 30 Z M 83 27 " clip-rule="nonzero"/></clipPath><clipPath id="clip-30"><path d="M 83 33 L 86.191406 33 L 86.191406 36 L 83 36 Z M 83 33 " clip-rule="nonzero"/></clipPath><clipPath id="clip-31"><path d="M 46 39 L 49 39 L 49 42.089844 L 46 42.089844 Z M 46 39 " clip-rule="nonzero"/></clipPath><clipPath id="clip-32"><path d="M 52 39 L 55 39 L 55 42.089844 L 52 42.089844 Z M 52 39 " clip-rule="nonzero"/></clipPath><clipPath id="clip-33"><path d="M 58 39 L 62 39 L 62 42.089844 L 58 42.089844 Z M 58 39 " clip-rule="nonzero"/></clipPath><clipPath id="clip-34"><path d="M 65 39 L 68 39 L 68 42.089844 L 65 42.089844 Z M 65 39 " clip-rule="nonzero"/></clipPath><clipPath id="clip-35"><path d="M 71 39 L 74 39 L 74 42.089844 L 71 42.089844 Z M 71 39 " clip-rule="nonzero"/></clipPath><clipPath id="clip-36"><path d="M 77 39 L 80 39 L 80 42.089844 L 77 42.089844 Z M 77 39 " clip-rule="nonzero"/></clipPath><clipPath id="clip-37"><path d="M 83 39 L 86.191406 39 L 86.191406 42.089844 L 83 42.089844 Z M 83 39 " clip-rule="nonzero"/></clipPath><clipPath id="clip-38"><path d="M 58.84375 2.339844 L 62 2.339844 L 62 5 L 58.84375 5 Z M 58.84375 2.339844 " clip-rule="nonzero"/></clipPath><clipPath id="clip-39"><path d="M 65 2.339844 L 68 2.339844 L 68 5 L 65 5 Z M 65 2.339844 " clip-rule="nonzero"/></clipPath><clipPath id="clip-40"><path d="M 71 2.339844 L 74 2.339844 L 74 5 L 71 5 Z M 71 2.339844 " clip-rule="nonzero"/></clipPath><clipPath id="clip-41"><path d="M 77 2.339844 L 80 2.339844 L 80 5 L 77 5 Z M 77 2.339844 " clip-rule="nonzero"/></clipPath><clipPath id="clip-42"><path d="M 84 2.339844 L 87 2.339844 L 87 5 L 84 5 Z M 84 2.339844 " clip-rule="nonzero"/></clipPath><clipPath id="clip-43"><path d="M 90 2.339844 L 93 2.339844 L 93 5 L 90 5 Z M 90 2.339844 " clip-rule="nonzero"/></clipPath><clipPath id="clip-44"><path d="M 96 2.339844 L 99 2.339844 L 99 5 L 96 5 Z M 96 2.339844 " clip-rule="nonzero"/></clipPath><clipPath id="clip-45"><path d="M 58.84375 8 L 62 8 L 62 11 L 58.84375 11 Z M 58.84375 8 " clip-rule="nonzero"/></clipPath><clipPath id="clip-46"><path d="M 58.84375 14 L 62 14 L 62 18 L 58.84375 18 Z M 58.84375 14 " clip-rule="nonzero"/></clipPath><clipPath id="clip-47"><path d="M 58.84375 21 L 62 21 L 62 24 L 58.84375 24 Z M 58.84375 21 " clip-rule="nonzero"/></clipPath><clipPath id="clip-48"><path d="M 58.84375 27 L 62 27 L 62 30 L 58.84375 30 Z M 58.84375 27 " clip-rule="nonzero"/></clipPath><clipPath id="clip-49"><path d="M 58.84375 33 L 62 33 L 62 36 L 58.84375 36 Z M 58.84375 33 " clip-rule="nonzero"/></clipPath><clipPath id="clip-50"><path d="M 58.84375 39 L 62 39 L 62 42.089844 L 58.84375 42.089844 Z M 58.84375 39 " clip-rule="nonzero"/></clipPath><clipPath id="clip-51"><path d="M 65 39 L 68 39 L 68 42.089844 L 65 42.089844 Z M 65 39 " clip-rule="nonzero"/></clipPath><clipPath id="clip-52"><path d="M 71 39 L 74 39 L 74 42.089844 L 71 42.089844 Z M 71 39 " clip-rule="nonzero"/></clipPath><clipPath id="clip-53"><path d="M 77 39 L 80 39 L 80 42.089844 L 77 42.089844 Z M 77 39 " clip-rule="nonzero"/></clipPath><clipPath id="clip-54"><path d="M 84 39 L 87 39 L 87 42.089844 L 84 42.089844 Z M 84 39 " clip-rule="nonzero"/></clipPath><clipPath id="clip-55"><path d="M 90 39 L 93 39 L 93 42.089844 L 90 42.089844 Z M 90 39 " clip-rule="nonzero"/></clipPath><clipPath id="clip-56"><path d="M 96 39 L 99 39 L 99 42.089844 L 96 42.089844 Z M 96 39 " clip-rule="nonzero"/></clipPath><clipPath id="clip-57"><path d="M 102 2.339844 L 106 2.339844 L 106 5 L 102 5 Z M 102 2.339844 " clip-rule="nonzero"/></clipPath><clipPath id="clip-58"><path d="M 109 2.339844 L 112 2.339844 L 112 5 L 109 5 Z M 109 2.339844 " clip-rule="nonzero"/></clipPath><clipPath id="clip-59"><path d="M 115 2.339844 L 118 2.339844 L 118 5 L 115 5 Z M 115 2.339844 " clip-rule="nonzero"/></clipPath><clipPath id="clip-60"><path d="M 121 2.339844 L 124 2.339844 L 124 5 L 121 5 Z M 121 2.339844 " clip-rule="nonzero"/></clipPath><clipPath id="clip-61"><path d="M 128 2.339844 L 131 2.339844 L 131 5 L 128 5 Z M 128 2.339844 " clip-rule="nonzero"/></clipPath><clipPath id="clip-62"><path d="M 134 2.339844 L 137 2.339844 L 137 5 L 134 5 Z M 134 2.339844 " clip-rule="nonzero"/></clipPath><clipPath id="clip-63"><path d="M 140 2.339844 L 142.84375 2.339844 L 142.84375 5 L 140 5 Z M 140 2.339844 " clip-rule="nonzero"/></clipPath><clipPath id="clip-64"><path d="M 140 8 L 142.84375 8 L 142.84375 11 L 140 11 Z M 140 8 " clip-rule="nonzero"/></clipPath><clipPath id="clip-65"><path d="M 140 14 L 142.84375 14 L 142.84375 18 L 140 18 Z M 140 14 " clip-rule="nonzero"/></clipPath><clipPath id="clip-66"><path d="M 140 21 L 142.84375 21 L 142.84375 24 L 140 24 Z M 140 21 " clip-rule="nonzero"/></clipPath><clipPath id="clip-67"><path d="M 140 27 L 142.84375 27 L 142.84375 30 L 140 30 Z M 140 27 " clip-rule="nonzero"/></clipPath><clipPath id="clip-68"><path d="M 140 33 L 142.84375 33 L 142.84375 36 L 140 36 Z M 140 33 " clip-rule="nonzero"/></clipPath><clipPath id="clip-69"><path d="M 102 39 L 106 39 L 106 42.089844 L 102 42.089844 Z M 102 39 " clip-rule="nonzero"/></clipPath><clipPath id="clip-70"><path d="M 109 39 L 112 39 L 112 42.089844 L 109 42.089844 Z M 109 39 " clip-rule="nonzero"/></clipPath><clipPath id="clip-71"><path d="M 115 39 L 118 39 L 118 42.089844 L 115 42.089844 Z M 115 39 " clip-rule="nonzero"/></clipPath><clipPath id="clip-72"><path d="M 121 39 L 124 39 L 124 42.089844 L 121 42.089844 Z M 121 39 " clip-rule="nonzero"/></clipPath><clipPath id="clip-73"><path d="M 128 39 L 131 39 L 131 42.089844 L 128 42.089844 Z M 128 39 " clip-rule="nonzero"/></clipPath><clipPath id="clip-74"><path d="M 134 39 L 137 39 L 137 42.089844 L 134 42.089844 Z M 134 39 " clip-rule="nonzero"/></clipPath><clipPath id="clip-75"><path d="M 140 39 L 142.84375 39 L 142.84375 42.089844 L 140 42.089844 Z M 140 39 " clip-rule="nonzero"/></clipPath></defs><g clip-path="url(#clip-0)"><path fill="rgb(15.289307%, 27.449036%, 56.469727%)" d="M 3.316406 2.339844 C 2.707031 2.339844 2.210938 2.832031 2.210938 3.4375 C 2.210938 4.046875 2.707031 4.539062 3.316406 4.539062 C 3.925781 4.539062 4.421875 4.046875 4.421875 3.4375 C 4.421875 2.832031 3.925781 2.339844 3.316406 2.339844 " fill-opacity="1" fill-rule="nonzero"/></g><g clip-path="url(#clip-1)"><path fill="rgb(15.289307%, 27.449036%, 56.469727%)" d="M 9.605469 2.339844 C 8.996094 2.339844 8.5 2.832031 8.5 3.4375 C 8.5 4.046875 8.996094 4.539062 9.605469 4.539062 C 10.214844 4.539062 10.710938 4.046875 10.710938 3.4375 C 10.710938 2.832031 10.214844 2.339844 9.605469 2.339844 " fill-opacity="1" fill-rule="nonzero"/></g><g clip-path="url(#clip-2)"><path fill="rgb(15.289307%, 27.449036%, 56.469727%)" d="M 15.894531 2.339844 C 15.285156 2.339844 14.789062 2.832031 14.789062 3.4375 C 14.789062 4.046875 15.285156 4.539062 15.894531 4.539062 C 16.503906 4.539062 17 4.046875 17 3.4375 C 17 2.832031 16.503906 2.339844 15.894531 2.339844 " fill-opacity="1" fill-rule="nonzero"/></g><g clip-path="url(#clip-3)"><path fill="rgb(15.289307%, 27.449036%, 56.469727%)" d="M 22.183594 2.339844 C 21.574219 2.339844 21.078125 2.832031 21.078125 3.4375 C 21.078125 4.046875 21.574219 4.539062 22.183594 4.539062 C 22.792969 4.539062 23.289062 4.046875 23.289062 3.4375 C 23.289062 2.832031 22.792969 2.339844 22.183594 2.339844 " fill-opacity="1" fill-rule="nonzero"/></g><g clip-path="url(#clip-4)"><path fill="rgb(15.289307%, 27.449036%, 56.469727%)" d="M 28.472656 2.339844 C 27.863281 2.339844 27.371094 2.832031 27.371094 3.4375 C 27.371094 4.046875 27.863281 4.539062 28.472656 4.539062 C 29.082031 4.539062 29.578125 4.046875 29.578125 3.4375 C 29.578125 2.832031 29.082031 2.339844 28.472656 2.339844 " fill-opacity="1" fill-rule="nonzero"/></g><g clip-path="url(#clip-5)"><path fill="rgb(15.289307%, 27.449036%, 56.469727%)" d="M 34.765625 2.339844 C 34.15625 2.339844 33.660156 2.832031 33.660156 3.4375 C 33.660156 4.046875 34.15625 4.539062 34.765625 4.539062 C 35.371094 4.539062 35.867188 4.046875 35.867188 3.4375 C 35.867188 2.832031 35.371094 2.339844 34.765625 2.339844 " fill-opacity="1" fill-rule="nonzero"/></g><g clip-path="url(#clip-6)"><path fill="rgb(15.289307%, 27.449036%, 56.469727%)" d="M 41.054688 2.339844 C 40.445312 2.339844 39.949219 2.832031 39.949219 3.4375 C 39.949219 4.046875 40.445312 4.539062 41.054688 4.539062 C 41.660156 4.539062 42.15625 4.046875 42.15625 3.4375 C 42.15625 2.832031 41.660156 2.339844 41.054688 2.339844 " fill-opacity="1" fill-rule="nonzero"/></g><g clip-path="url(#clip-7)"><path fill="rgb(15.289307%, 27.449036%, 56.469727%)" d="M 3.316406 8.601562 C 2.707031 8.601562 2.210938 9.097656 2.210938 9.703125 C 2.210938 10.308594 2.707031 10.804688 3.316406 10.804688 C 3.925781 10.804688 4.421875 10.308594 4.421875 9.703125 C 4.421875 9.097656 3.925781 8.601562 3.316406 8.601562 " fill-opacity="1" fill-rule="nonzero"/></g><path fill="rgb(15.289307%, 27.449036%, 56.469727%)" d="M 9.605469 8.601562 C 8.996094 8.601562 8.5 9.097656 8.5 9.703125 C 8.5 10.308594 8.996094 10.804688 9.605469 10.804688 C 10.214844 10.804688 10.710938 10.308594 10.710938 9.703125 C 10.710938 9.097656 10.214844 8.601562 9.605469 8.601562 " fill-opacity="1" fill-rule="nonzero"/><path fill="rgb(15.289307%, 27.449036%, 56.469727%)" d="M 15.894531 8.601562 C 15.285156 8.601562 14.789062 9.097656 14.789062 9.703125 C 14.789062 10.308594 15.285156 10.804688 15.894531 10.804688 C 16.503906 10.804688 17 10.308594 17 9.703125 C 17 9.097656 16.503906 8.601562 15.894531 8.601562 " fill-opacity="1" fill-rule="nonzero"/><path fill="rgb(15.289307%, 27.449036%, 56.469727%)" d="M 22.183594 8.601562 C 21.574219 8.601562 21.078125 9.097656 21.078125 9.703125 C 21.078125 10.308594 21.574219 10.804688 22.183594 10.804688 C 22.792969 10.804688 23.289062 10.308594 23.289062 9.703125 C 23.289062 9.097656 22.792969 8.601562 22.183594 8.601562 " fill-opacity="1" fill-rule="nonzero"/><path fill="rgb(15.289307%, 27.449036%, 56.469727%)" d="M 28.472656 8.601562 C 27.863281 8.601562 27.371094 9.097656 27.371094 9.703125 C 27.371094 10.308594 27.863281 10.804688 28.472656 10.804688 C 29.082031 10.804688 29.578125 10.308594 29.578125 9.703125 C 29.578125 9.097656 29.082031 8.601562 28.472656 8.601562 " fill-opacity="1" fill-rule="nonzero"/><path fill="rgb(15.289307%, 27.449036%, 56.469727%)" d="M 34.765625 8.601562 C 34.15625 8.601562 33.660156 9.097656 33.660156 9.703125 C 33.660156 10.308594 34.15625 10.804688 34.765625 10.804688 C 35.371094 10.804688 35.867188 10.308594 35.867188 9.703125 C 35.867188 9.097656 35.371094 8.601562 34.765625 8.601562 " fill-opacity="1" fill-rule="nonzero"/><path fill="rgb(15.289307%, 27.449036%, 56.469727%)" d="M 41.054688 8.601562 C 40.445312 8.601562 39.949219 9.097656 39.949219 9.703125 C 39.949219 10.308594 40.445312 10.804688 41.054688 10.804688 C 41.660156 10.804688 42.15625 10.308594 42.15625 9.703125 C 42.15625 9.097656 41.660156 8.601562 41.054688 8.601562 " fill-opacity="1" fill-rule="nonzero"/><g clip-path="url(#clip-8)"><path fill="rgb(15.289307%, 27.449036%, 56.469727%)" d="M 3.316406 14.828125 C 2.707031 14.828125 2.210938 15.320312 2.210938 15.929688 C 2.210938 16.535156 2.707031 17.027344 3.316406 17.027344 C 3.925781 17.027344 4.421875 16.535156 4.421875 15.929688 C 4.421875 15.320312 3.925781 14.828125 3.316406 14.828125 " fill-opacity="1" fill-rule="nonzero"/></g><path fill="rgb(15.289307%, 27.449036%, 56.469727%)" d="M 9.605469 14.828125 C 8.996094 14.828125 8.5 15.320312 8.5 15.929688 C 8.5 16.535156 8.996094 17.027344 9.605469 17.027344 C 10.214844 17.027344 10.710938 16.535156 10.710938 15.929688 C 10.710938 15.320312 10.214844 14.828125 9.605469 14.828125 " fill-opacity="1" fill-rule="nonzero"/><path fill="rgb(15.289307%, 27.449036%, 56.469727%)" d="M 15.894531 14.828125 C 15.285156 14.828125 14.789062 15.320312 14.789062 15.929688 C 14.789062 16.535156 15.285156 17.027344 15.894531 17.027344 C 16.503906 17.027344 17 16.535156 17 15.929688 C 17 15.320312 16.503906 14.828125 15.894531 14.828125 " fill-opacity="1" fill-rule="nonzero"/><path fill="rgb(15.289307%, 27.449036%, 56.469727%)" d="M 22.183594 14.828125 C 21.574219 14.828125 21.078125 15.320312 21.078125 15.929688 C 21.078125 16.535156 21.574219 17.027344 22.183594 17.027344 C 22.792969 17.027344 23.289062 16.535156 23.289062 15.929688 C 23.289062 15.320312 22.792969 14.828125 22.183594 14.828125 " fill-opacity="1" fill-rule="nonzero"/><path fill="rgb(15.289307%, 27.449036%, 56.469727%)" d="M 28.472656 14.828125 C 27.863281 14.828125 27.371094 15.320312 27.371094 15.929688 C 27.371094 16.535156 27.863281 17.027344 28.472656 17.027344 C 29.082031 17.027344 29.578125 16.535156 29.578125 15.929688 C 29.578125 15.320312 29.082031 14.828125 28.472656 14.828125 " fill-opacity="1" fill-rule="nonzero"/><path fill="rgb(15.289307%, 27.449036%, 56.469727%)" d="M 34.765625 14.828125 C 34.15625 14.828125 33.660156 15.320312 33.660156 15.929688 C 33.660156 16.535156 34.15625 17.027344 34.765625 17.027344 C 35.371094 17.027344 35.867188 16.535156 35.867188 15.929688 C 35.867188 15.320312 35.371094 14.828125 34.765625 14.828125 " fill-opacity="1" fill-rule="nonzero"/><path fill="rgb(15.289307%, 27.449036%, 56.469727%)" d="M 41.054688 14.828125 C 40.445312 14.828125 39.949219 15.320312 39.949219 15.929688 C 39.949219 16.535156 40.445312 17.027344 41.054688 17.027344 C 41.660156 17.027344 42.15625 16.535156 42.15625 15.929688 C 42.15625 15.320312 41.660156 14.828125 41.054688 14.828125 " fill-opacity="1" fill-rule="nonzero"/><g clip-path="url(#clip-9)"><path fill="rgb(15.289307%, 27.449036%, 56.469727%)" d="M 3.316406 21.09375 C 2.707031 21.09375 2.210938 21.585938 2.210938 22.195312 C 2.210938 22.800781 2.707031 23.292969 3.316406 23.292969 C 3.925781 23.292969 4.421875 22.800781 4.421875 22.195312 C 4.421875 21.585938 3.925781 21.09375 3.316406 21.09375 " fill-opacity="1" fill-rule="nonzero"/></g><path fill="rgb(15.289307%, 27.449036%, 56.469727%)" d="M 9.605469 21.09375 C 8.996094 21.09375 8.5 21.585938 8.5 22.195312 C 8.5 22.800781 8.996094 23.292969 9.605469 23.292969 C 10.214844 23.292969 10.710938 22.800781 10.710938 22.195312 C 10.710938 21.585938 10.214844 21.09375 9.605469 21.09375 " fill-opacity="1" fill-rule="nonzero"/><path fill="rgb(15.289307%, 27.449036%, 56.469727%)" d="M 15.894531 21.09375 C 15.285156 21.09375 14.789062 21.585938 14.789062 22.195312 C 14.789062 22.800781 15.285156 23.292969 15.894531 23.292969 C 16.503906 23.292969 17 22.800781 17 22.195312 C 17 21.585938 16.503906 21.09375 15.894531 21.09375 " fill-opacity="1" fill-rule="nonzero"/><path fill="rgb(15.289307%, 27.449036%, 56.469727%)" d="M 22.183594 21.09375 C 21.574219 21.09375 21.078125 21.585938 21.078125 22.195312 C 21.078125 22.800781 21.574219 23.292969 22.183594 23.292969 C 22.792969 23.292969 23.289062 22.800781 23.289062 22.195312 C 23.289062 21.585938 22.792969 21.09375 22.183594 21.09375 " fill-opacity="1" fill-rule="nonzero"/><path fill="rgb(15.289307%, 27.449036%, 56.469727%)" d="M 28.472656 21.09375 C 27.863281 21.09375 27.371094 21.585938 27.371094 22.195312 C 27.371094 22.800781 27.863281 23.292969 28.472656 23.292969 C 29.082031 23.292969 29.578125 22.800781 29.578125 22.195312 C 29.578125 21.585938 29.082031 21.09375 28.472656 21.09375 " fill-opacity="1" fill-rule="nonzero"/><path fill="rgb(15.289307%, 27.449036%, 56.469727%)" d="M 34.765625 21.09375 C 34.15625 21.09375 33.660156 21.585938 33.660156 22.195312 C 33.660156 22.800781 34.15625 23.292969 34.765625 23.292969 C 35.371094 23.292969 35.867188 22.800781 35.867188 22.195312 C 35.867188 21.585938 35.371094 21.09375 34.765625 21.09375 " fill-opacity="1" fill-rule="nonzero"/><path fill="rgb(15.289307%, 27.449036%, 56.469727%)" d="M 41.054688 21.09375 C 40.445312 21.09375 39.949219 21.585938 39.949219 22.195312 C 39.949219 22.800781 40.445312 23.292969 41.054688 23.292969 C 41.660156 23.292969 42.15625 22.800781 42.15625 22.195312 C 42.15625 21.585938 41.660156 21.09375 41.054688 21.09375 " fill-opacity="1" fill-rule="nonzero"/><g clip-path="url(#clip-10)"><path fill="rgb(15.289307%, 27.449036%, 56.469727%)" d="M 3.316406 27.355469 C 2.707031 27.355469 2.210938 27.851562 2.210938 28.457031 C 2.210938 29.066406 2.707031 29.558594 3.316406 29.558594 C 3.925781 29.558594 4.421875 29.066406 4.421875 28.457031 C 4.421875 27.851562 3.925781 27.355469 3.316406 27.355469 " fill-opacity="1" fill-rule="nonzero"/></g><path fill="rgb(15.289307%, 27.449036%, 56.469727%)" d="M 9.605469 27.355469 C 8.996094 27.355469 8.5 27.851562 8.5 28.457031 C 8.5 29.066406 8.996094 29.558594 9.605469 29.558594 C 10.214844 29.558594 10.710938 29.066406 10.710938 28.457031 C 10.710938 27.851562 10.214844 27.355469 9.605469 27.355469 " fill-opacity="1" fill-rule="nonzero"/><path fill="rgb(15.289307%, 27.449036%, 56.469727%)" d="M 15.894531 27.355469 C 15.285156 27.355469 14.789062 27.851562 14.789062 28.457031 C 14.789062 29.066406 15.285156 29.558594 15.894531 29.558594 C 16.503906 29.558594 17 29.066406 17 28.457031 C 17 27.851562 16.503906 27.355469 15.894531 27.355469 " fill-opacity="1" fill-rule="nonzero"/><path fill="rgb(15.289307%, 27.449036%, 56.469727%)" d="M 22.183594 27.355469 C 21.574219 27.355469 21.078125 27.851562 21.078125 28.457031 C 21.078125 29.066406 21.574219 29.558594 22.183594 29.558594 C 22.792969 29.558594 23.289062 29.066406 23.289062 28.457031 C 23.289062 27.851562 22.792969 27.355469 22.183594 27.355469 " fill-opacity="1" fill-rule="nonzero"/><path fill="rgb(15.289307%, 27.449036%, 56.469727%)" d="M 28.472656 27.355469 C 27.863281 27.355469 27.371094 27.851562 27.371094 28.457031 C 27.371094 29.066406 27.863281 29.558594 28.472656 29.558594 C 29.082031 29.558594 29.578125 29.066406 29.578125 28.457031 C 29.578125 27.851562 29.082031 27.355469 28.472656 27.355469 " fill-opacity="1" fill-rule="nonzero"/><path fill="rgb(15.289307%, 27.449036%, 56.469727%)" d="M 34.765625 27.355469 C 34.15625 27.355469 33.660156 27.851562 33.660156 28.457031 C 33.660156 29.066406 34.15625 29.558594 34.765625 29.558594 C 35.371094 29.558594 35.867188 29.066406 35.867188 28.457031 C 35.867188 27.851562 35.371094 27.355469 34.765625 27.355469 " fill-opacity="1" fill-rule="nonzero"/><path fill="rgb(15.289307%, 27.449036%, 56.469727%)" d="M 41.054688 27.355469 C 40.445312 27.355469 39.949219 27.851562 39.949219 28.457031 C 39.949219 29.066406 40.445312 29.558594 41.054688 29.558594 C 41.660156 29.558594 42.15625 29.066406 42.15625 28.457031 C 42.15625 27.851562 41.660156 27.355469 41.054688 27.355469 " fill-opacity="1" fill-rule="nonzero"/><g clip-path="url(#clip-11)"><path fill="rgb(15.289307%, 27.449036%, 56.469727%)" d="M 3.316406 33.582031 C 2.707031 33.582031 2.210938 34.074219 2.210938 34.683594 C 2.210938 35.289062 2.707031 35.785156 3.316406 35.785156 C 3.925781 35.785156 4.421875 35.289062 4.421875 34.683594 C 4.421875 34.074219 3.925781 33.582031 3.316406 33.582031 " fill-opacity="1" fill-rule="nonzero"/></g><path fill="rgb(15.289307%, 27.449036%, 56.469727%)" d="M 9.605469 33.582031 C 8.996094 33.582031 8.5 34.074219 8.5 34.683594 C 8.5 35.289062 8.996094 35.785156 9.605469 35.785156 C 10.214844 35.785156 10.710938 35.289062 10.710938 34.683594 C 10.710938 34.074219 10.214844 33.582031 9.605469 33.582031 " fill-opacity="1" fill-rule="nonzero"/><path fill="rgb(15.289307%, 27.449036%, 56.469727%)" d="M 15.894531 33.582031 C 15.285156 33.582031 14.789062 34.074219 14.789062 34.683594 C 14.789062 35.289062 15.285156 35.785156 15.894531 35.785156 C 16.503906 35.785156 17 35.289062 17 34.683594 C 17 34.074219 16.503906 33.582031 15.894531 33.582031 " fill-opacity="1" fill-rule="nonzero"/><path fill="rgb(15.289307%, 27.449036%, 56.469727%)" d="M 22.183594 33.582031 C 21.574219 33.582031 21.078125 34.074219 21.078125 34.683594 C 21.078125 35.289062 21.574219 35.785156 22.183594 35.785156 C 22.792969 35.785156 23.289062 35.289062 23.289062 34.683594 C 23.289062 34.074219 22.792969 33.582031 22.183594 33.582031 " fill-opacity="1" fill-rule="nonzero"/><path fill="rgb(15.289307%, 27.449036%, 56.469727%)" d="M 28.472656 33.582031 C 27.863281 33.582031 27.371094 34.074219 27.371094 34.683594 C 27.371094 35.289062 27.863281 35.785156 28.472656 35.785156 C 29.082031 35.785156 29.578125 35.289062 29.578125 34.683594 C 29.578125 34.074219 29.082031 33.582031 28.472656 33.582031 " fill-opacity="1" fill-rule="nonzero"/><path fill="rgb(15.289307%, 27.449036%, 56.469727%)" d="M 34.765625 33.582031 C 34.15625 33.582031 33.660156 34.074219 33.660156 34.683594 C 33.660156 35.289062 34.15625 35.785156 34.765625 35.785156 C 35.371094 35.785156 35.867188 35.289062 35.867188 34.683594 C 35.867188 34.074219 35.371094 33.582031 34.765625 33.582031 " fill-opacity="1" fill-rule="nonzero"/><path fill="rgb(15.289307%, 27.449036%, 56.469727%)" d="M 41.054688 33.582031 C 40.445312 33.582031 39.949219 34.074219 39.949219 34.683594 C 39.949219 35.289062 40.445312 35.785156 41.054688 35.785156 C 41.660156 35.785156 42.15625 35.289062 42.15625 34.683594 C 42.15625 34.074219 41.660156 33.582031 41.054688 33.582031 " fill-opacity="1" fill-rule="nonzero"/><g clip-path="url(#clip-12)"><path fill="rgb(15.289307%, 27.449036%, 56.469727%)" d="M 3.316406 39.886719 C 2.707031 39.886719 2.210938 40.382812 2.210938 40.988281 C 2.210938 41.59375 2.707031 42.089844 3.316406 42.089844 C 3.925781 42.089844 4.421875 41.59375 4.421875 40.988281 C 4.421875 40.382812 3.925781 39.886719 3.316406 39.886719 " fill-opacity="1" fill-rule="nonzero"/></g><g clip-path="url(#clip-13)"><path fill="rgb(15.289307%, 27.449036%, 56.469727%)" d="M 9.605469 39.886719 C 8.996094 39.886719 8.5 40.382812 8.5 40.988281 C 8.5 41.59375 8.996094 42.089844 9.605469 42.089844 C 10.214844 42.089844 10.710938 41.59375 10.710938 40.988281 C 10.710938 40.382812 10.214844 39.886719 9.605469 39.886719 " fill-opacity="1" fill-rule="nonzero"/></g><g clip-path="url(#clip-14)"><path fill="rgb(15.289307%, 27.449036%, 56.469727%)" d="M 15.894531 39.886719 C 15.285156 39.886719 14.789062 40.382812 14.789062 40.988281 C 14.789062 41.59375 15.285156 42.089844 15.894531 42.089844 C 16.503906 42.089844 17 41.59375 17 40.988281 C 17 40.382812 16.503906 39.886719 15.894531 39.886719 " fill-opacity="1" fill-rule="nonzero"/></g><g clip-path="url(#clip-15)"><path fill="rgb(15.289307%, 27.449036%, 56.469727%)" d="M 22.183594 39.886719 C 21.574219 39.886719 21.078125 40.382812 21.078125 40.988281 C 21.078125 41.59375 21.574219 42.089844 22.183594 42.089844 C 22.792969 42.089844 23.289062 41.59375 23.289062 40.988281 C 23.289062 40.382812 22.792969 39.886719 22.183594 39.886719 " fill-opacity="1" fill-rule="nonzero"/></g><g clip-path="url(#clip-16)"><path fill="rgb(15.289307%, 27.449036%, 56.469727%)" d="M 28.472656 39.886719 C 27.863281 39.886719 27.371094 40.382812 27.371094 40.988281 C 27.371094 41.59375 27.863281 42.089844 28.472656 42.089844 C 29.082031 42.089844 29.578125 41.59375 29.578125 40.988281 C 29.578125 40.382812 29.082031 39.886719 28.472656 39.886719 " fill-opacity="1" fill-rule="nonzero"/></g><g clip-path="url(#clip-17)"><path fill="rgb(15.289307%, 27.449036%, 56.469727%)" d="M 34.765625 39.886719 C 34.15625 39.886719 33.660156 40.382812 33.660156 40.988281 C 33.660156 41.59375 34.15625 42.089844 34.765625 42.089844 C 35.371094 42.089844 35.867188 41.59375 35.867188 40.988281 C 35.867188 40.382812 35.371094 39.886719 34.765625 39.886719 " fill-opacity="1" fill-rule="nonzero"/></g><g clip-path="url(#clip-18)"><path fill="rgb(15.289307%, 27.449036%, 56.469727%)" d="M 41.054688 39.886719 C 40.445312 39.886719 39.949219 40.382812 39.949219 40.988281 C 39.949219 41.59375 40.445312 42.089844 41.054688 42.089844 C 41.660156 42.089844 42.15625 41.59375 42.15625 40.988281 C 42.15625 40.382812 41.660156 39.886719 41.054688 39.886719 " fill-opacity="1" fill-rule="nonzero"/></g><g clip-path="url(#clip-19)"><path fill="rgb(15.289307%, 27.449036%, 56.469727%)" d="M 47.339844 2.339844 C 46.730469 2.339844 46.234375 2.832031 46.234375 3.4375 C 46.234375 4.046875 46.730469 4.539062 47.339844 4.539062 C 47.949219 4.539062 48.445312 4.046875 48.445312 3.4375 C 48.445312 2.832031 47.949219 2.339844 47.339844 2.339844 " fill-opacity="1" fill-rule="nonzero"/></g><g clip-path="url(#clip-20)"><path fill="rgb(15.289307%, 27.449036%, 56.469727%)" d="M 53.628906 2.339844 C 53.019531 2.339844 52.523438 2.832031 52.523438 3.4375 C 52.523438 4.046875 53.019531 4.539062 53.628906 4.539062 C 54.238281 4.539062 54.734375 4.046875 54.734375 3.4375 C 54.734375 2.832031 54.238281 2.339844 53.628906 2.339844 " fill-opacity="1" fill-rule="nonzero"/></g><g clip-path="url(#clip-21)"><path fill="rgb(15.289307%, 27.449036%, 56.469727%)" d="M 59.917969 2.339844 C 59.308594 2.339844 58.8125 2.832031 58.8125 3.4375 C 58.8125 4.046875 59.308594 4.539062 59.917969 4.539062 C 60.527344 4.539062 61.023438 4.046875 61.023438 3.4375 C 61.023438 2.832031 60.527344 2.339844 59.917969 2.339844 " fill-opacity="1" fill-rule="nonzero"/></g><g clip-path="url(#clip-22)"><path fill="rgb(15.289307%, 27.449036%, 56.469727%)" d="M 66.207031 2.339844 C 65.597656 2.339844 65.105469 2.832031 65.105469 3.4375 C 65.105469 4.046875 65.597656 4.539062 66.207031 4.539062 C 66.816406 4.539062 67.3125 4.046875 67.3125 3.4375 C 67.3125 2.832031 66.816406 2.339844 66.207031 2.339844 " fill-opacity="1" fill-rule="nonzero"/></g><g clip-path="url(#clip-23)"><path fill="rgb(15.289307%, 27.449036%, 56.469727%)" d="M 72.496094 2.339844 C 71.890625 2.339844 71.394531 2.832031 71.394531 3.4375 C 71.394531 4.046875 71.890625 4.539062 72.496094 4.539062 C 73.105469 4.539062 73.601562 4.046875 73.601562 3.4375 C 73.601562 2.832031 73.105469 2.339844 72.496094 2.339844 " fill-opacity="1" fill-rule="nonzero"/></g><g clip-path="url(#clip-24)"><path fill="rgb(15.289307%, 27.449036%, 56.469727%)" d="M 78.789062 2.339844 C 78.179688 2.339844 77.683594 2.832031 77.683594 3.4375 C 77.683594 4.046875 78.179688 4.539062 78.789062 4.539062 C 79.398438 4.539062 79.890625 4.046875 79.890625 3.4375 C 79.890625 2.832031 79.398438 2.339844 78.789062 2.339844 " fill-opacity="1" fill-rule="nonzero"/></g><g clip-path="url(#clip-25)"><path fill="rgb(15.289307%, 27.449036%, 56.469727%)" d="M 85.078125 4.539062 C 85.6875 4.539062 86.179688 4.046875 86.179688 3.4375 C 86.179688 2.832031 85.6875 2.339844 85.078125 2.339844 C 84.46875 2.339844 83.972656 2.832031 83.972656 3.4375 C 83.972656 4.046875 84.46875 4.539062 85.078125 4.539062 " fill-opacity="1" fill-rule="nonzero"/></g><path fill="rgb(15.289307%, 27.449036%, 56.469727%)" d="M 47.339844 8.601562 C 46.730469 8.601562 46.234375 9.097656 46.234375 9.703125 C 46.234375 10.308594 46.730469 10.804688 47.339844 10.804688 C 47.949219 10.804688 48.445312 10.308594 48.445312 9.703125 C 48.445312 9.097656 47.949219 8.601562 47.339844 8.601562 " fill-opacity="1" fill-rule="nonzero"/><path fill="rgb(15.289307%, 27.449036%, 56.469727%)" d="M 53.628906 8.601562 C 53.019531 8.601562 52.523438 9.097656 52.523438 9.703125 C 52.523438 10.308594 53.019531 10.804688 53.628906 10.804688 C 54.238281 10.804688 54.734375 10.308594 54.734375 9.703125 C 54.734375 9.097656 54.238281 8.601562 53.628906 8.601562 " fill-opacity="1" fill-rule="nonzero"/><path fill="rgb(15.289307%, 27.449036%, 56.469727%)" d="M 59.917969 8.601562 C 59.308594 8.601562 58.8125 9.097656 58.8125 9.703125 C 58.8125 10.308594 59.308594 10.804688 59.917969 10.804688 C 60.527344 10.804688 61.023438 10.308594 61.023438 9.703125 C 61.023438 9.097656 60.527344 8.601562 59.917969 8.601562 " fill-opacity="1" fill-rule="nonzero"/><path fill="rgb(15.289307%, 27.449036%, 56.469727%)" d="M 66.207031 8.601562 C 65.597656 8.601562 65.105469 9.097656 65.105469 9.703125 C 65.105469 10.308594 65.597656 10.804688 66.207031 10.804688 C 66.816406 10.804688 67.3125 10.308594 67.3125 9.703125 C 67.3125 9.097656 66.816406 8.601562 66.207031 8.601562 " fill-opacity="1" fill-rule="nonzero"/><path fill="rgb(15.289307%, 27.449036%, 56.469727%)" d="M 72.496094 8.601562 C 71.890625 8.601562 71.394531 9.097656 71.394531 9.703125 C 71.394531 10.308594 71.890625 10.804688 72.496094 10.804688 C 73.105469 10.804688 73.601562 10.308594 73.601562 9.703125 C 73.601562 9.097656 73.105469 8.601562 72.496094 8.601562 " fill-opacity="1" fill-rule="nonzero"/><path fill="rgb(15.289307%, 27.449036%, 56.469727%)" d="M 78.789062 8.601562 C 78.179688 8.601562 77.683594 9.097656 77.683594 9.703125 C 77.683594 10.308594 78.179688 10.804688 78.789062 10.804688 C 79.398438 10.804688 79.890625 10.308594 79.890625 9.703125 C 79.890625 9.097656 79.398438 8.601562 78.789062 8.601562 " fill-opacity="1" fill-rule="nonzero"/><g clip-path="url(#clip-26)"><path fill="rgb(15.289307%, 27.449036%, 56.469727%)" d="M 85.078125 8.601562 C 84.46875 8.601562 83.972656 9.097656 83.972656 9.703125 C 83.972656 10.308594 84.46875 10.804688 85.078125 10.804688 C 85.6875 10.804688 86.179688 10.308594 86.179688 9.703125 C 86.179688 9.097656 85.6875 8.601562 85.078125 8.601562 " fill-opacity="1" fill-rule="nonzero"/></g><path fill="rgb(15.289307%, 27.449036%, 56.469727%)" d="M 47.339844 14.828125 C 46.730469 14.828125 46.234375 15.320312 46.234375 15.929688 C 46.234375 16.535156 46.730469 17.027344 47.339844 17.027344 C 47.949219 17.027344 48.445312 16.535156 48.445312 15.929688 C 48.445312 15.320312 47.949219 14.828125 47.339844 14.828125 " fill-opacity="1" fill-rule="nonzero"/><path fill="rgb(15.289307%, 27.449036%, 56.469727%)" d="M 53.628906 14.828125 C 53.019531 14.828125 52.523438 15.320312 52.523438 15.929688 C 52.523438 16.535156 53.019531 17.027344 53.628906 17.027344 C 54.238281 17.027344 54.734375 16.535156 54.734375 15.929688 C 54.734375 15.320312 54.238281 14.828125 53.628906 14.828125 " fill-opacity="1" fill-rule="nonzero"/><path fill="rgb(15.289307%, 27.449036%, 56.469727%)" d="M 59.917969 14.828125 C 59.308594 14.828125 58.8125 15.320312 58.8125 15.929688 C 58.8125 16.535156 59.308594 17.027344 59.917969 17.027344 C 60.527344 17.027344 61.023438 16.535156 61.023438 15.929688 C 61.023438 15.320312 60.527344 14.828125 59.917969 14.828125 " fill-opacity="1" fill-rule="nonzero"/><path fill="rgb(15.289307%, 27.449036%, 56.469727%)" d="M 66.207031 14.828125 C 65.597656 14.828125 65.105469 15.320312 65.105469 15.929688 C 65.105469 16.535156 65.597656 17.027344 66.207031 17.027344 C 66.816406 17.027344 67.3125 16.535156 67.3125 15.929688 C 67.3125 15.320312 66.816406 14.828125 66.207031 14.828125 " fill-opacity="1" fill-rule="nonzero"/><path fill="rgb(15.289307%, 27.449036%, 56.469727%)" d="M 72.496094 14.828125 C 71.890625 14.828125 71.394531 15.320312 71.394531 15.929688 C 71.394531 16.535156 71.890625 17.027344 72.496094 17.027344 C 73.105469 17.027344 73.601562 16.535156 73.601562 15.929688 C 73.601562 15.320312 73.105469 14.828125 72.496094 14.828125 " fill-opacity="1" fill-rule="nonzero"/><path fill="rgb(15.289307%, 27.449036%, 56.469727%)" d="M 78.789062 14.828125 C 78.179688 14.828125 77.683594 15.320312 77.683594 15.929688 C 77.683594 16.535156 78.179688 17.027344 78.789062 17.027344 C 79.398438 17.027344 79.890625 16.535156 79.890625 15.929688 C 79.890625 15.320312 79.398438 14.828125 78.789062 14.828125 " fill-opacity="1" fill-rule="nonzero"/><g clip-path="url(#clip-27)"><path fill="rgb(15.289307%, 27.449036%, 56.469727%)" d="M 85.078125 14.828125 C 84.46875 14.828125 83.972656 15.320312 83.972656 15.929688 C 83.972656 16.535156 84.46875 17.027344 85.078125 17.027344 C 85.6875 17.027344 86.179688 16.535156 86.179688 15.929688 C 86.179688 15.320312 85.6875 14.828125 85.078125 14.828125 " fill-opacity="1" fill-rule="nonzero"/></g><path fill="rgb(15.289307%, 27.449036%, 56.469727%)" d="M 47.339844 21.09375 C 46.730469 21.09375 46.234375 21.585938 46.234375 22.195312 C 46.234375 22.800781 46.730469 23.292969 47.339844 23.292969 C 47.949219 23.292969 48.445312 22.800781 48.445312 22.195312 C 48.445312 21.585938 47.949219 21.09375 47.339844 21.09375 " fill-opacity="1" fill-rule="nonzero"/><path fill="rgb(15.289307%, 27.449036%, 56.469727%)" d="M 53.628906 21.09375 C 53.019531 21.09375 52.523438 21.585938 52.523438 22.195312 C 52.523438 22.800781 53.019531 23.292969 53.628906 23.292969 C 54.238281 23.292969 54.734375 22.800781 54.734375 22.195312 C 54.734375 21.585938 54.238281 21.09375 53.628906 21.09375 " fill-opacity="1" fill-rule="nonzero"/><path fill="rgb(15.289307%, 27.449036%, 56.469727%)" d="M 59.917969 21.09375 C 59.308594 21.09375 58.8125 21.585938 58.8125 22.195312 C 58.8125 22.800781 59.308594 23.292969 59.917969 23.292969 C 60.527344 23.292969 61.023438 22.800781 61.023438 22.195312 C 61.023438 21.585938 60.527344 21.09375 59.917969 21.09375 " fill-opacity="1" fill-rule="nonzero"/><path fill="rgb(15.289307%, 27.449036%, 56.469727%)" d="M 66.207031 21.09375 C 65.597656 21.09375 65.105469 21.585938 65.105469 22.195312 C 65.105469 22.800781 65.597656 23.292969 66.207031 23.292969 C 66.816406 23.292969 67.3125 22.800781 67.3125 22.195312 C 67.3125 21.585938 66.816406 21.09375 66.207031 21.09375 " fill-opacity="1" fill-rule="nonzero"/><path fill="rgb(15.289307%, 27.449036%, 56.469727%)" d="M 72.496094 21.09375 C 71.890625 21.09375 71.394531 21.585938 71.394531 22.195312 C 71.394531 22.800781 71.890625 23.292969 72.496094 23.292969 C 73.105469 23.292969 73.601562 22.800781 73.601562 22.195312 C 73.601562 21.585938 73.105469 21.09375 72.496094 21.09375 " fill-opacity="1" fill-rule="nonzero"/><path fill="rgb(15.289307%, 27.449036%, 56.469727%)" d="M 78.789062 21.09375 C 78.179688 21.09375 77.683594 21.585938 77.683594 22.195312 C 77.683594 22.800781 78.179688 23.292969 78.789062 23.292969 C 79.398438 23.292969 79.890625 22.800781 79.890625 22.195312 C 79.890625 21.585938 79.398438 21.09375 78.789062 21.09375 " fill-opacity="1" fill-rule="nonzero"/><g clip-path="url(#clip-28)"><path fill="rgb(15.289307%, 27.449036%, 56.469727%)" d="M 85.078125 21.09375 C 84.46875 21.09375 83.972656 21.585938 83.972656 22.195312 C 83.972656 22.800781 84.46875 23.292969 85.078125 23.292969 C 85.6875 23.292969 86.179688 22.800781 86.179688 22.195312 C 86.179688 21.585938 85.6875 21.09375 85.078125 21.09375 " fill-opacity="1" fill-rule="nonzero"/></g><path fill="rgb(15.289307%, 27.449036%, 56.469727%)" d="M 47.339844 27.355469 C 46.730469 27.355469 46.234375 27.851562 46.234375 28.457031 C 46.234375 29.066406 46.730469 29.558594 47.339844 29.558594 C 47.949219 29.558594 48.445312 29.066406 48.445312 28.457031 C 48.445312 27.851562 47.949219 27.355469 47.339844 27.355469 " fill-opacity="1" fill-rule="nonzero"/><path fill="rgb(15.289307%, 27.449036%, 56.469727%)" d="M 53.628906 27.355469 C 53.019531 27.355469 52.523438 27.851562 52.523438 28.457031 C 52.523438 29.066406 53.019531 29.558594 53.628906 29.558594 C 54.238281 29.558594 54.734375 29.066406 54.734375 28.457031 C 54.734375 27.851562 54.238281 27.355469 53.628906 27.355469 " fill-opacity="1" fill-rule="nonzero"/><path fill="rgb(15.289307%, 27.449036%, 56.469727%)" d="M 59.917969 27.355469 C 59.308594 27.355469 58.8125 27.851562 58.8125 28.457031 C 58.8125 29.066406 59.308594 29.558594 59.917969 29.558594 C 60.527344 29.558594 61.023438 29.066406 61.023438 28.457031 C 61.023438 27.851562 60.527344 27.355469 59.917969 27.355469 " fill-opacity="1" fill-rule="nonzero"/><path fill="rgb(15.289307%, 27.449036%, 56.469727%)" d="M 66.207031 27.355469 C 65.597656 27.355469 65.105469 27.851562 65.105469 28.457031 C 65.105469 29.066406 65.597656 29.558594 66.207031 29.558594 C 66.816406 29.558594 67.3125 29.066406 67.3125 28.457031 C 67.3125 27.851562 66.816406 27.355469 66.207031 27.355469 " fill-opacity="1" fill-rule="nonzero"/><path fill="rgb(15.289307%, 27.449036%, 56.469727%)" d="M 72.496094 27.355469 C 71.890625 27.355469 71.394531 27.851562 71.394531 28.457031 C 71.394531 29.066406 71.890625 29.558594 72.496094 29.558594 C 73.105469 29.558594 73.601562 29.066406 73.601562 28.457031 C 73.601562 27.851562 73.105469 27.355469 72.496094 27.355469 " fill-opacity="1" fill-rule="nonzero"/><path fill="rgb(15.289307%, 27.449036%, 56.469727%)" d="M 78.789062 27.355469 C 78.179688 27.355469 77.683594 27.851562 77.683594 28.457031 C 77.683594 29.066406 78.179688 29.558594 78.789062 29.558594 C 79.398438 29.558594 79.890625 29.066406 79.890625 28.457031 C 79.890625 27.851562 79.398438 27.355469 78.789062 27.355469 " fill-opacity="1" fill-rule="nonzero"/><g clip-path="url(#clip-29)"><path fill="rgb(15.289307%, 27.449036%, 56.469727%)" d="M 85.078125 27.355469 C 84.46875 27.355469 83.972656 27.851562 83.972656 28.457031 C 83.972656 29.066406 84.46875 29.558594 85.078125 29.558594 C 85.6875 29.558594 86.179688 29.066406 86.179688 28.457031 C 86.179688 27.851562 85.6875 27.355469 85.078125 27.355469 " fill-opacity="1" fill-rule="nonzero"/></g><path fill="rgb(15.289307%, 27.449036%, 56.469727%)" d="M 47.339844 33.582031 C 46.730469 33.582031 46.234375 34.074219 46.234375 34.683594 C 46.234375 35.289062 46.730469 35.785156 47.339844 35.785156 C 47.949219 35.785156 48.445312 35.289062 48.445312 34.683594 C 48.445312 34.074219 47.949219 33.582031 47.339844 33.582031 " fill-opacity="1" fill-rule="nonzero"/><path fill="rgb(15.289307%, 27.449036%, 56.469727%)" d="M 53.628906 33.582031 C 53.019531 33.582031 52.523438 34.074219 52.523438 34.683594 C 52.523438 35.289062 53.019531 35.785156 53.628906 35.785156 C 54.238281 35.785156 54.734375 35.289062 54.734375 34.683594 C 54.734375 34.074219 54.238281 33.582031 53.628906 33.582031 " fill-opacity="1" fill-rule="nonzero"/><path fill="rgb(15.289307%, 27.449036%, 56.469727%)" d="M 59.917969 33.582031 C 59.308594 33.582031 58.8125 34.074219 58.8125 34.683594 C 58.8125 35.289062 59.308594 35.785156 59.917969 35.785156 C 60.527344 35.785156 61.023438 35.289062 61.023438 34.683594 C 61.023438 34.074219 60.527344 33.582031 59.917969 33.582031 " fill-opacity="1" fill-rule="nonzero"/><path fill="rgb(15.289307%, 27.449036%, 56.469727%)" d="M 66.207031 33.582031 C 65.597656 33.582031 65.105469 34.074219 65.105469 34.683594 C 65.105469 35.289062 65.597656 35.785156 66.207031 35.785156 C 66.816406 35.785156 67.3125 35.289062 67.3125 34.683594 C 67.3125 34.074219 66.816406 33.582031 66.207031 33.582031 " fill-opacity="1" fill-rule="nonzero"/><path fill="rgb(15.289307%, 27.449036%, 56.469727%)" d="M 72.496094 33.582031 C 71.890625 33.582031 71.394531 34.074219 71.394531 34.683594 C 71.394531 35.289062 71.890625 35.785156 72.496094 35.785156 C 73.105469 35.785156 73.601562 35.289062 73.601562 34.683594 C 73.601562 34.074219 73.105469 33.582031 72.496094 33.582031 " fill-opacity="1" fill-rule="nonzero"/><path fill="rgb(15.289307%, 27.449036%, 56.469727%)" d="M 78.789062 33.582031 C 78.179688 33.582031 77.683594 34.074219 77.683594 34.683594 C 77.683594 35.289062 78.179688 35.785156 78.789062 35.785156 C 79.398438 35.785156 79.890625 35.289062 79.890625 34.683594 C 79.890625 34.074219 79.398438 33.582031 78.789062 33.582031 " fill-opacity="1" fill-rule="nonzero"/><g clip-path="url(#clip-30)"><path fill="rgb(15.289307%, 27.449036%, 56.469727%)" d="M 85.078125 33.582031 C 84.46875 33.582031 83.972656 34.074219 83.972656 34.683594 C 83.972656 35.289062 84.46875 35.785156 85.078125 35.785156 C 85.6875 35.785156 86.179688 35.289062 86.179688 34.683594 C 86.179688 34.074219 85.6875 33.582031 85.078125 33.582031 " fill-opacity="1" fill-rule="nonzero"/></g><g clip-path="url(#clip-31)"><path fill="rgb(15.289307%, 27.449036%, 56.469727%)" d="M 47.339844 39.886719 C 46.730469 39.886719 46.234375 40.382812 46.234375 40.988281 C 46.234375 41.59375 46.730469 42.089844 47.339844 42.089844 C 47.949219 42.089844 48.445312 41.59375 48.445312 40.988281 C 48.445312 40.382812 47.949219 39.886719 47.339844 39.886719 " fill-opacity="1" fill-rule="nonzero"/></g><g clip-path="url(#clip-32)"><path fill="rgb(15.289307%, 27.449036%, 56.469727%)" d="M 53.628906 39.886719 C 53.019531 39.886719 52.523438 40.382812 52.523438 40.988281 C 52.523438 41.59375 53.019531 42.089844 53.628906 42.089844 C 54.238281 42.089844 54.734375 41.59375 54.734375 40.988281 C 54.734375 40.382812 54.238281 39.886719 53.628906 39.886719 " fill-opacity="1" fill-rule="nonzero"/></g><g clip-path="url(#clip-33)"><path fill="rgb(15.289307%, 27.449036%, 56.469727%)" d="M 59.917969 39.886719 C 59.308594 39.886719 58.8125 40.382812 58.8125 40.988281 C 58.8125 41.59375 59.308594 42.089844 59.917969 42.089844 C 60.527344 42.089844 61.023438 41.59375 61.023438 40.988281 C 61.023438 40.382812 60.527344 39.886719 59.917969 39.886719 " fill-opacity="1" fill-rule="nonzero"/></g><g clip-path="url(#clip-34)"><path fill="rgb(15.289307%, 27.449036%, 56.469727%)" d="M 66.207031 39.886719 C 65.597656 39.886719 65.105469 40.382812 65.105469 40.988281 C 65.105469 41.59375 65.597656 42.089844 66.207031 42.089844 C 66.816406 42.089844 67.3125 41.59375 67.3125 40.988281 C 67.3125 40.382812 66.816406 39.886719 66.207031 39.886719 " fill-opacity="1" fill-rule="nonzero"/></g><g clip-path="url(#clip-35)"><path fill="rgb(15.289307%, 27.449036%, 56.469727%)" d="M 72.496094 39.886719 C 71.890625 39.886719 71.394531 40.382812 71.394531 40.988281 C 71.394531 41.59375 71.890625 42.089844 72.496094 42.089844 C 73.105469 42.089844 73.601562 41.59375 73.601562 40.988281 C 73.601562 40.382812 73.105469 39.886719 72.496094 39.886719 " fill-opacity="1" fill-rule="nonzero"/></g><g clip-path="url(#clip-36)"><path fill="rgb(15.289307%, 27.449036%, 56.469727%)" d="M 78.789062 39.886719 C 78.179688 39.886719 77.683594 40.382812 77.683594 40.988281 C 77.683594 41.59375 78.179688 42.089844 78.789062 42.089844 C 79.398438 42.089844 79.890625 41.59375 79.890625 40.988281 C 79.890625 40.382812 79.398438 39.886719 78.789062 39.886719 " fill-opacity="1" fill-rule="nonzero"/></g><g clip-path="url(#clip-37)"><path fill="rgb(15.289307%, 27.449036%, 56.469727%)" d="M 85.078125 39.886719 C 84.46875 39.886719 83.972656 40.382812 83.972656 40.988281 C 83.972656 41.59375 84.46875 42.089844 85.078125 42.089844 C 85.6875 42.089844 86.179688 41.59375 86.179688 40.988281 C 86.179688 40.382812 85.6875 39.886719 85.078125 39.886719 " fill-opacity="1" fill-rule="nonzero"/></g><g clip-path="url(#clip-38)"><path fill="rgb(15.289307%, 27.449036%, 56.469727%)" d="M 59.96875 2.339844 C 59.359375 2.339844 58.863281 2.832031 58.863281 3.4375 C 58.863281 4.046875 59.359375 4.539062 59.96875 4.539062 C 60.578125 4.539062 61.074219 4.046875 61.074219 3.4375 C 61.074219 2.832031 60.578125 2.339844 59.96875 2.339844 " fill-opacity="1" fill-rule="nonzero"/></g><g clip-path="url(#clip-39)"><path fill="rgb(15.289307%, 27.449036%, 56.469727%)" d="M 66.257812 2.339844 C 65.648438 2.339844 65.152344 2.832031 65.152344 3.4375 C 65.152344 4.046875 65.648438 4.539062 66.257812 4.539062 C 66.867188 4.539062 67.363281 4.046875 67.363281 3.4375 C 67.363281 2.832031 66.867188 2.339844 66.257812 2.339844 " fill-opacity="1" fill-rule="nonzero"/></g><g clip-path="url(#clip-40)"><path fill="rgb(15.289307%, 27.449036%, 56.469727%)" d="M 72.546875 2.339844 C 71.9375 2.339844 71.441406 2.832031 71.441406 3.4375 C 71.441406 4.046875 71.9375 4.539062 72.546875 4.539062 C 73.15625 4.539062 73.652344 4.046875 73.652344 3.4375 C 73.652344 2.832031 73.15625 2.339844 72.546875 2.339844 " fill-opacity="1" fill-rule="nonzero"/></g><g clip-path="url(#clip-41)"><path fill="rgb(15.289307%, 27.449036%, 56.469727%)" d="M 78.835938 2.339844 C 78.226562 2.339844 77.730469 2.832031 77.730469 3.4375 C 77.730469 4.046875 78.226562 4.539062 78.835938 4.539062 C 79.445312 4.539062 79.941406 4.046875 79.941406 3.4375 C 79.941406 2.832031 79.445312 2.339844 78.835938 2.339844 " fill-opacity="1" fill-rule="nonzero"/></g><g clip-path="url(#clip-42)"><path fill="rgb(15.289307%, 27.449036%, 56.469727%)" d="M 85.125 2.339844 C 84.515625 2.339844 84.023438 2.832031 84.023438 3.4375 C 84.023438 4.046875 84.515625 4.539062 85.125 4.539062 C 85.734375 4.539062 86.230469 4.046875 86.230469 3.4375 C 86.230469 2.832031 85.734375 2.339844 85.125 2.339844 " fill-opacity="1" fill-rule="nonzero"/></g><g clip-path="url(#clip-43)"><path fill="rgb(15.289307%, 27.449036%, 56.469727%)" d="M 91.417969 2.339844 C 90.808594 2.339844 90.3125 2.832031 90.3125 3.4375 C 90.3125 4.046875 90.808594 4.539062 91.417969 4.539062 C 92.027344 4.539062 92.519531 4.046875 92.519531 3.4375 C 92.519531 2.832031 92.027344 2.339844 91.417969 2.339844 " fill-opacity="1" fill-rule="nonzero"/></g><g clip-path="url(#clip-44)"><path fill="rgb(15.289307%, 27.449036%, 56.469727%)" d="M 97.707031 2.339844 C 97.097656 2.339844 96.601562 2.832031 96.601562 3.4375 C 96.601562 4.046875 97.097656 4.539062 97.707031 4.539062 C 98.316406 4.539062 98.808594 4.046875 98.808594 3.4375 C 98.808594 2.832031 98.316406 2.339844 97.707031 2.339844 " fill-opacity="1" fill-rule="nonzero"/></g><g clip-path="url(#clip-45)"><path fill="rgb(15.289307%, 27.449036%, 56.469727%)" d="M 59.96875 8.601562 C 59.359375 8.601562 58.863281 9.097656 58.863281 9.703125 C 58.863281 10.308594 59.359375 10.804688 59.96875 10.804688 C 60.578125 10.804688 61.074219 10.308594 61.074219 9.703125 C 61.074219 9.097656 60.578125 8.601562 59.96875 8.601562 " fill-opacity="1" fill-rule="nonzero"/></g><path fill="rgb(15.289307%, 27.449036%, 56.469727%)" d="M 66.257812 8.601562 C 65.648438 8.601562 65.152344 9.097656 65.152344 9.703125 C 65.152344 10.308594 65.648438 10.804688 66.257812 10.804688 C 66.867188 10.804688 67.363281 10.308594 67.363281 9.703125 C 67.363281 9.097656 66.867188 8.601562 66.257812 8.601562 " fill-opacity="1" fill-rule="nonzero"/><path fill="rgb(15.289307%, 27.449036%, 56.469727%)" d="M 72.546875 8.601562 C 71.9375 8.601562 71.441406 9.097656 71.441406 9.703125 C 71.441406 10.308594 71.9375 10.804688 72.546875 10.804688 C 73.15625 10.804688 73.652344 10.308594 73.652344 9.703125 C 73.652344 9.097656 73.15625 8.601562 72.546875 8.601562 " fill-opacity="1" fill-rule="nonzero"/><path fill="rgb(15.289307%, 27.449036%, 56.469727%)" d="M 78.835938 8.601562 C 78.226562 8.601562 77.730469 9.097656 77.730469 9.703125 C 77.730469 10.308594 78.226562 10.804688 78.835938 10.804688 C 79.445312 10.804688 79.941406 10.308594 79.941406 9.703125 C 79.941406 9.097656 79.445312 8.601562 78.835938 8.601562 " fill-opacity="1" fill-rule="nonzero"/><path fill="rgb(15.289307%, 27.449036%, 56.469727%)" d="M 85.125 8.601562 C 84.515625 8.601562 84.023438 9.097656 84.023438 9.703125 C 84.023438 10.308594 84.515625 10.804688 85.125 10.804688 C 85.734375 10.804688 86.230469 10.308594 86.230469 9.703125 C 86.230469 9.097656 85.734375 8.601562 85.125 8.601562 " fill-opacity="1" fill-rule="nonzero"/><path fill="rgb(15.289307%, 27.449036%, 56.469727%)" d="M 91.417969 8.601562 C 90.808594 8.601562 90.3125 9.097656 90.3125 9.703125 C 90.3125 10.308594 90.808594 10.804688 91.417969 10.804688 C 92.027344 10.804688 92.519531 10.308594 92.519531 9.703125 C 92.519531 9.097656 92.027344 8.601562 91.417969 8.601562 " fill-opacity="1" fill-rule="nonzero"/><path fill="rgb(15.289307%, 27.449036%, 56.469727%)" d="M 97.707031 8.601562 C 97.097656 8.601562 96.601562 9.097656 96.601562 9.703125 C 96.601562 10.308594 97.097656 10.804688 97.707031 10.804688 C 98.316406 10.804688 98.808594 10.308594 98.808594 9.703125 C 98.808594 9.097656 98.316406 8.601562 97.707031 8.601562 " fill-opacity="1" fill-rule="nonzero"/><g clip-path="url(#clip-46)"><path fill="rgb(15.289307%, 27.449036%, 56.469727%)" d="M 59.96875 14.828125 C 59.359375 14.828125 58.863281 15.320312 58.863281 15.929688 C 58.863281 16.535156 59.359375 17.027344 59.96875 17.027344 C 60.578125 17.027344 61.074219 16.535156 61.074219 15.929688 C 61.074219 15.320312 60.578125 14.828125 59.96875 14.828125 " fill-opacity="1" fill-rule="nonzero"/></g><path fill="rgb(15.289307%, 27.449036%, 56.469727%)" d="M 66.257812 14.828125 C 65.648438 14.828125 65.152344 15.320312 65.152344 15.929688 C 65.152344 16.535156 65.648438 17.027344 66.257812 17.027344 C 66.867188 17.027344 67.363281 16.535156 67.363281 15.929688 C 67.363281 15.320312 66.867188 14.828125 66.257812 14.828125 " fill-opacity="1" fill-rule="nonzero"/><path fill="rgb(15.289307%, 27.449036%, 56.469727%)" d="M 72.546875 14.828125 C 71.9375 14.828125 71.441406 15.320312 71.441406 15.929688 C 71.441406 16.535156 71.9375 17.027344 72.546875 17.027344 C 73.15625 17.027344 73.652344 16.535156 73.652344 15.929688 C 73.652344 15.320312 73.15625 14.828125 72.546875 14.828125 " fill-opacity="1" fill-rule="nonzero"/><path fill="rgb(15.289307%, 27.449036%, 56.469727%)" d="M 78.835938 14.828125 C 78.226562 14.828125 77.730469 15.320312 77.730469 15.929688 C 77.730469 16.535156 78.226562 17.027344 78.835938 17.027344 C 79.445312 17.027344 79.941406 16.535156 79.941406 15.929688 C 79.941406 15.320312 79.445312 14.828125 78.835938 14.828125 " fill-opacity="1" fill-rule="nonzero"/><path fill="rgb(15.289307%, 27.449036%, 56.469727%)" d="M 85.125 14.828125 C 84.515625 14.828125 84.023438 15.320312 84.023438 15.929688 C 84.023438 16.535156 84.515625 17.027344 85.125 17.027344 C 85.734375 17.027344 86.230469 16.535156 86.230469 15.929688 C 86.230469 15.320312 85.734375 14.828125 85.125 14.828125 " fill-opacity="1" fill-rule="nonzero"/><path fill="rgb(15.289307%, 27.449036%, 56.469727%)" d="M 91.417969 14.828125 C 90.808594 14.828125 90.3125 15.320312 90.3125 15.929688 C 90.3125 16.535156 90.808594 17.027344 91.417969 17.027344 C 92.027344 17.027344 92.519531 16.535156 92.519531 15.929688 C 92.519531 15.320312 92.027344 14.828125 91.417969 14.828125 " fill-opacity="1" fill-rule="nonzero"/><path fill="rgb(15.289307%, 27.449036%, 56.469727%)" d="M 97.707031 14.828125 C 97.097656 14.828125 96.601562 15.320312 96.601562 15.929688 C 96.601562 16.535156 97.097656 17.027344 97.707031 17.027344 C 98.316406 17.027344 98.808594 16.535156 98.808594 15.929688 C 98.808594 15.320312 98.316406 14.828125 97.707031 14.828125 " fill-opacity="1" fill-rule="nonzero"/><g clip-path="url(#clip-47)"><path fill="rgb(15.289307%, 27.449036%, 56.469727%)" d="M 59.96875 21.09375 C 59.359375 21.09375 58.863281 21.585938 58.863281 22.195312 C 58.863281 22.800781 59.359375 23.292969 59.96875 23.292969 C 60.578125 23.292969 61.074219 22.800781 61.074219 22.195312 C 61.074219 21.585938 60.578125 21.09375 59.96875 21.09375 " fill-opacity="1" fill-rule="nonzero"/></g><path fill="rgb(15.289307%, 27.449036%, 56.469727%)" d="M 66.257812 21.09375 C 65.648438 21.09375 65.152344 21.585938 65.152344 22.195312 C 65.152344 22.800781 65.648438 23.292969 66.257812 23.292969 C 66.867188 23.292969 67.363281 22.800781 67.363281 22.195312 C 67.363281 21.585938 66.867188 21.09375 66.257812 21.09375 " fill-opacity="1" fill-rule="nonzero"/><path fill="rgb(15.289307%, 27.449036%, 56.469727%)" d="M 72.546875 21.09375 C 71.9375 21.09375 71.441406 21.585938 71.441406 22.195312 C 71.441406 22.800781 71.9375 23.292969 72.546875 23.292969 C 73.15625 23.292969 73.652344 22.800781 73.652344 22.195312 C 73.652344 21.585938 73.15625 21.09375 72.546875 21.09375 " fill-opacity="1" fill-rule="nonzero"/><path fill="rgb(15.289307%, 27.449036%, 56.469727%)" d="M 78.835938 21.09375 C 78.226562 21.09375 77.730469 21.585938 77.730469 22.195312 C 77.730469 22.800781 78.226562 23.292969 78.835938 23.292969 C 79.445312 23.292969 79.941406 22.800781 79.941406 22.195312 C 79.941406 21.585938 79.445312 21.09375 78.835938 21.09375 " fill-opacity="1" fill-rule="nonzero"/><path fill="rgb(15.289307%, 27.449036%, 56.469727%)" d="M 85.125 21.09375 C 84.515625 21.09375 84.023438 21.585938 84.023438 22.195312 C 84.023438 22.800781 84.515625 23.292969 85.125 23.292969 C 85.734375 23.292969 86.230469 22.800781 86.230469 22.195312 C 86.230469 21.585938 85.734375 21.09375 85.125 21.09375 " fill-opacity="1" fill-rule="nonzero"/><path fill="rgb(15.289307%, 27.449036%, 56.469727%)" d="M 91.417969 21.09375 C 90.808594 21.09375 90.3125 21.585938 90.3125 22.195312 C 90.3125 22.800781 90.808594 23.292969 91.417969 23.292969 C 92.027344 23.292969 92.519531 22.800781 92.519531 22.195312 C 92.519531 21.585938 92.027344 21.09375 91.417969 21.09375 " fill-opacity="1" fill-rule="nonzero"/><path fill="rgb(15.289307%, 27.449036%, 56.469727%)" d="M 97.707031 21.09375 C 97.097656 21.09375 96.601562 21.585938 96.601562 22.195312 C 96.601562 22.800781 97.097656 23.292969 97.707031 23.292969 C 98.316406 23.292969 98.808594 22.800781 98.808594 22.195312 C 98.808594 21.585938 98.316406 21.09375 97.707031 21.09375 " fill-opacity="1" fill-rule="nonzero"/><g clip-path="url(#clip-48)"><path fill="rgb(15.289307%, 27.449036%, 56.469727%)" d="M 59.96875 27.355469 C 59.359375 27.355469 58.863281 27.851562 58.863281 28.457031 C 58.863281 29.066406 59.359375 29.558594 59.96875 29.558594 C 60.578125 29.558594 61.074219 29.066406 61.074219 28.457031 C 61.074219 27.851562 60.578125 27.355469 59.96875 27.355469 " fill-opacity="1" fill-rule="nonzero"/></g><path fill="rgb(15.289307%, 27.449036%, 56.469727%)" d="M 66.257812 27.355469 C 65.648438 27.355469 65.152344 27.851562 65.152344 28.457031 C 65.152344 29.066406 65.648438 29.558594 66.257812 29.558594 C 66.867188 29.558594 67.363281 29.066406 67.363281 28.457031 C 67.363281 27.851562 66.867188 27.355469 66.257812 27.355469 " fill-opacity="1" fill-rule="nonzero"/><path fill="rgb(15.289307%, 27.449036%, 56.469727%)" d="M 72.546875 27.355469 C 71.9375 27.355469 71.441406 27.851562 71.441406 28.457031 C 71.441406 29.066406 71.9375 29.558594 72.546875 29.558594 C 73.15625 29.558594 73.652344 29.066406 73.652344 28.457031 C 73.652344 27.851562 73.15625 27.355469 72.546875 27.355469 " fill-opacity="1" fill-rule="nonzero"/><path fill="rgb(15.289307%, 27.449036%, 56.469727%)" d="M 78.835938 27.355469 C 78.226562 27.355469 77.730469 27.851562 77.730469 28.457031 C 77.730469 29.066406 78.226562 29.558594 78.835938 29.558594 C 79.445312 29.558594 79.941406 29.066406 79.941406 28.457031 C 79.941406 27.851562 79.445312 27.355469 78.835938 27.355469 " fill-opacity="1" fill-rule="nonzero"/><path fill="rgb(15.289307%, 27.449036%, 56.469727%)" d="M 85.125 27.355469 C 84.515625 27.355469 84.023438 27.851562 84.023438 28.457031 C 84.023438 29.066406 84.515625 29.558594 85.125 29.558594 C 85.734375 29.558594 86.230469 29.066406 86.230469 28.457031 C 86.230469 27.851562 85.734375 27.355469 85.125 27.355469 " fill-opacity="1" fill-rule="nonzero"/><path fill="rgb(15.289307%, 27.449036%, 56.469727%)" d="M 91.417969 27.355469 C 90.808594 27.355469 90.3125 27.851562 90.3125 28.457031 C 90.3125 29.066406 90.808594 29.558594 91.417969 29.558594 C 92.027344 29.558594 92.519531 29.066406 92.519531 28.457031 C 92.519531 27.851562 92.027344 27.355469 91.417969 27.355469 " fill-opacity="1" fill-rule="nonzero"/><path fill="rgb(15.289307%, 27.449036%, 56.469727%)" d="M 97.707031 27.355469 C 97.097656 27.355469 96.601562 27.851562 96.601562 28.457031 C 96.601562 29.066406 97.097656 29.558594 97.707031 29.558594 C 98.316406 29.558594 98.808594 29.066406 98.808594 28.457031 C 98.808594 27.851562 98.316406 27.355469 97.707031 27.355469 " fill-opacity="1" fill-rule="nonzero"/><g clip-path="url(#clip-49)"><path fill="rgb(15.289307%, 27.449036%, 56.469727%)" d="M 59.96875 33.582031 C 59.359375 33.582031 58.863281 34.074219 58.863281 34.683594 C 58.863281 35.289062 59.359375 35.785156 59.96875 35.785156 C 60.578125 35.785156 61.074219 35.289062 61.074219 34.683594 C 61.074219 34.074219 60.578125 33.582031 59.96875 33.582031 " fill-opacity="1" fill-rule="nonzero"/></g><path fill="rgb(15.289307%, 27.449036%, 56.469727%)" d="M 66.257812 33.582031 C 65.648438 33.582031 65.152344 34.074219 65.152344 34.683594 C 65.152344 35.289062 65.648438 35.785156 66.257812 35.785156 C 66.867188 35.785156 67.363281 35.289062 67.363281 34.683594 C 67.363281 34.074219 66.867188 33.582031 66.257812 33.582031 " fill-opacity="1" fill-rule="nonzero"/><path fill="rgb(15.289307%, 27.449036%, 56.469727%)" d="M 72.546875 33.582031 C 71.9375 33.582031 71.441406 34.074219 71.441406 34.683594 C 71.441406 35.289062 71.9375 35.785156 72.546875 35.785156 C 73.15625 35.785156 73.652344 35.289062 73.652344 34.683594 C 73.652344 34.074219 73.15625 33.582031 72.546875 33.582031 " fill-opacity="1" fill-rule="nonzero"/><path fill="rgb(15.289307%, 27.449036%, 56.469727%)" d="M 78.835938 33.582031 C 78.226562 33.582031 77.730469 34.074219 77.730469 34.683594 C 77.730469 35.289062 78.226562 35.785156 78.835938 35.785156 C 79.445312 35.785156 79.941406 35.289062 79.941406 34.683594 C 79.941406 34.074219 79.445312 33.582031 78.835938 33.582031 " fill-opacity="1" fill-rule="nonzero"/><path fill="rgb(15.289307%, 27.449036%, 56.469727%)" d="M 85.125 33.582031 C 84.515625 33.582031 84.023438 34.074219 84.023438 34.683594 C 84.023438 35.289062 84.515625 35.785156 85.125 35.785156 C 85.734375 35.785156 86.230469 35.289062 86.230469 34.683594 C 86.230469 34.074219 85.734375 33.582031 85.125 33.582031 " fill-opacity="1" fill-rule="nonzero"/><path fill="rgb(15.289307%, 27.449036%, 56.469727%)" d="M 91.417969 33.582031 C 90.808594 33.582031 90.3125 34.074219 90.3125 34.683594 C 90.3125 35.289062 90.808594 35.785156 91.417969 35.785156 C 92.027344 35.785156 92.519531 35.289062 92.519531 34.683594 C 92.519531 34.074219 92.027344 33.582031 91.417969 33.582031 " fill-opacity="1" fill-rule="nonzero"/><path fill="rgb(15.289307%, 27.449036%, 56.469727%)" d="M 97.707031 33.582031 C 97.097656 33.582031 96.601562 34.074219 96.601562 34.683594 C 96.601562 35.289062 97.097656 35.785156 97.707031 35.785156 C 98.316406 35.785156 98.808594 35.289062 98.808594 34.683594 C 98.808594 34.074219 98.316406 33.582031 97.707031 33.582031 " fill-opacity="1" fill-rule="nonzero"/><g clip-path="url(#clip-50)"><path fill="rgb(15.289307%, 27.449036%, 56.469727%)" d="M 59.96875 39.886719 C 59.359375 39.886719 58.863281 40.382812 58.863281 40.988281 C 58.863281 41.59375 59.359375 42.089844 59.96875 42.089844 C 60.578125 42.089844 61.074219 41.59375 61.074219 40.988281 C 61.074219 40.382812 60.578125 39.886719 59.96875 39.886719 " fill-opacity="1" fill-rule="nonzero"/></g><g clip-path="url(#clip-51)"><path fill="rgb(15.289307%, 27.449036%, 56.469727%)" d="M 66.257812 39.886719 C 65.648438 39.886719 65.152344 40.382812 65.152344 40.988281 C 65.152344 41.59375 65.648438 42.089844 66.257812 42.089844 C 66.867188 42.089844 67.363281 41.59375 67.363281 40.988281 C 67.363281 40.382812 66.867188 39.886719 66.257812 39.886719 " fill-opacity="1" fill-rule="nonzero"/></g><g clip-path="url(#clip-52)"><path fill="rgb(15.289307%, 27.449036%, 56.469727%)" d="M 72.546875 39.886719 C 71.9375 39.886719 71.441406 40.382812 71.441406 40.988281 C 71.441406 41.59375 71.9375 42.089844 72.546875 42.089844 C 73.15625 42.089844 73.652344 41.59375 73.652344 40.988281 C 73.652344 40.382812 73.15625 39.886719 72.546875 39.886719 " fill-opacity="1" fill-rule="nonzero"/></g><g clip-path="url(#clip-53)"><path fill="rgb(15.289307%, 27.449036%, 56.469727%)" d="M 78.835938 39.886719 C 78.226562 39.886719 77.730469 40.382812 77.730469 40.988281 C 77.730469 41.59375 78.226562 42.089844 78.835938 42.089844 C 79.445312 42.089844 79.941406 41.59375 79.941406 40.988281 C 79.941406 40.382812 79.445312 39.886719 78.835938 39.886719 " fill-opacity="1" fill-rule="nonzero"/></g><g clip-path="url(#clip-54)"><path fill="rgb(15.289307%, 27.449036%, 56.469727%)" d="M 85.125 39.886719 C 84.515625 39.886719 84.023438 40.382812 84.023438 40.988281 C 84.023438 41.59375 84.515625 42.089844 85.125 42.089844 C 85.734375 42.089844 86.230469 41.59375 86.230469 40.988281 C 86.230469 40.382812 85.734375 39.886719 85.125 39.886719 " fill-opacity="1" fill-rule="nonzero"/></g><g clip-path="url(#clip-55)"><path fill="rgb(15.289307%, 27.449036%, 56.469727%)" d="M 91.417969 39.886719 C 90.808594 39.886719 90.3125 40.382812 90.3125 40.988281 C 90.3125 41.59375 90.808594 42.089844 91.417969 42.089844 C 92.027344 42.089844 92.519531 41.59375 92.519531 40.988281 C 92.519531 40.382812 92.027344 39.886719 91.417969 39.886719 " fill-opacity="1" fill-rule="nonzero"/></g><g clip-path="url(#clip-56)"><path fill="rgb(15.289307%, 27.449036%, 56.469727%)" d="M 97.707031 39.886719 C 97.097656 39.886719 96.601562 40.382812 96.601562 40.988281 C 96.601562 41.59375 97.097656 42.089844 97.707031 42.089844 C 98.316406 42.089844 98.808594 41.59375 98.808594 40.988281 C 98.808594 40.382812 98.316406 39.886719 97.707031 39.886719 " fill-opacity="1" fill-rule="nonzero"/></g><g clip-path="url(#clip-57)"><path fill="rgb(15.289307%, 27.449036%, 56.469727%)" d="M 103.992188 2.339844 C 103.382812 2.339844 102.886719 2.832031 102.886719 3.4375 C 102.886719 4.046875 103.382812 4.539062 103.992188 4.539062 C 104.601562 4.539062 105.097656 4.046875 105.097656 3.4375 C 105.097656 2.832031 104.601562 2.339844 103.992188 2.339844 " fill-opacity="1" fill-rule="nonzero"/></g><g clip-path="url(#clip-58)"><path fill="rgb(15.289307%, 27.449036%, 56.469727%)" d="M 110.28125 2.339844 C 109.671875 2.339844 109.175781 2.832031 109.175781 3.4375 C 109.175781 4.046875 109.671875 4.539062 110.28125 4.539062 C 110.890625 4.539062 111.386719 4.046875 111.386719 3.4375 C 111.386719 2.832031 110.890625 2.339844 110.28125 2.339844 " fill-opacity="1" fill-rule="nonzero"/></g><g clip-path="url(#clip-59)"><path fill="rgb(15.289307%, 27.449036%, 56.469727%)" d="M 116.570312 2.339844 C 115.960938 2.339844 115.46875 2.832031 115.46875 3.4375 C 115.46875 4.046875 115.960938 4.539062 116.570312 4.539062 C 117.179688 4.539062 117.675781 4.046875 117.675781 3.4375 C 117.675781 2.832031 117.179688 2.339844 116.570312 2.339844 " fill-opacity="1" fill-rule="nonzero"/></g><g clip-path="url(#clip-60)"><path fill="rgb(15.289307%, 27.449036%, 56.469727%)" d="M 122.859375 2.339844 C 122.25 2.339844 121.757812 2.832031 121.757812 3.4375 C 121.757812 4.046875 122.25 4.539062 122.859375 4.539062 C 123.46875 4.539062 123.964844 4.046875 123.964844 3.4375 C 123.964844 2.832031 123.46875 2.339844 122.859375 2.339844 " fill-opacity="1" fill-rule="nonzero"/></g><g clip-path="url(#clip-61)"><path fill="rgb(15.289307%, 27.449036%, 56.469727%)" d="M 129.148438 2.339844 C 128.542969 2.339844 128.046875 2.832031 128.046875 3.4375 C 128.046875 4.046875 128.542969 4.539062 129.148438 4.539062 C 129.757812 4.539062 130.253906 4.046875 130.253906 3.4375 C 130.253906 2.832031 129.757812 2.339844 129.148438 2.339844 " fill-opacity="1" fill-rule="nonzero"/></g><g clip-path="url(#clip-62)"><path fill="rgb(15.289307%, 27.449036%, 56.469727%)" d="M 135.441406 2.339844 C 134.832031 2.339844 134.335938 2.832031 134.335938 3.4375 C 134.335938 4.046875 134.832031 4.539062 135.441406 4.539062 C 136.050781 4.539062 136.542969 4.046875 136.542969 3.4375 C 136.542969 2.832031 136.050781 2.339844 135.441406 2.339844 " fill-opacity="1" fill-rule="nonzero"/></g><g clip-path="url(#clip-63)"><path fill="rgb(15.289307%, 27.449036%, 56.469727%)" d="M 141.730469 4.539062 C 142.339844 4.539062 142.832031 4.046875 142.832031 3.4375 C 142.832031 2.832031 142.339844 2.339844 141.730469 2.339844 C 141.121094 2.339844 140.625 2.832031 140.625 3.4375 C 140.625 4.046875 141.121094 4.539062 141.730469 4.539062 " fill-opacity="1" fill-rule="nonzero"/></g><path fill="rgb(15.289307%, 27.449036%, 56.469727%)" d="M 103.992188 8.601562 C 103.382812 8.601562 102.886719 9.097656 102.886719 9.703125 C 102.886719 10.308594 103.382812 10.804688 103.992188 10.804688 C 104.601562 10.804688 105.097656 10.308594 105.097656 9.703125 C 105.097656 9.097656 104.601562 8.601562 103.992188 8.601562 " fill-opacity="1" fill-rule="nonzero"/><path fill="rgb(15.289307%, 27.449036%, 56.469727%)" d="M 110.28125 8.601562 C 109.671875 8.601562 109.175781 9.097656 109.175781 9.703125 C 109.175781 10.308594 109.671875 10.804688 110.28125 10.804688 C 110.890625 10.804688 111.386719 10.308594 111.386719 9.703125 C 111.386719 9.097656 110.890625 8.601562 110.28125 8.601562 " fill-opacity="1" fill-rule="nonzero"/><path fill="rgb(15.289307%, 27.449036%, 56.469727%)" d="M 116.570312 8.601562 C 115.960938 8.601562 115.46875 9.097656 115.46875 9.703125 C 115.46875 10.308594 115.960938 10.804688 116.570312 10.804688 C 117.179688 10.804688 117.675781 10.308594 117.675781 9.703125 C 117.675781 9.097656 117.179688 8.601562 116.570312 8.601562 " fill-opacity="1" fill-rule="nonzero"/><path fill="rgb(15.289307%, 27.449036%, 56.469727%)" d="M 122.859375 8.601562 C 122.25 8.601562 121.757812 9.097656 121.757812 9.703125 C 121.757812 10.308594 122.25 10.804688 122.859375 10.804688 C 123.46875 10.804688 123.964844 10.308594 123.964844 9.703125 C 123.964844 9.097656 123.46875 8.601562 122.859375 8.601562 " fill-opacity="1" fill-rule="nonzero"/><path fill="rgb(15.289307%, 27.449036%, 56.469727%)" d="M 129.148438 8.601562 C 128.542969 8.601562 128.046875 9.097656 128.046875 9.703125 C 128.046875 10.308594 128.542969 10.804688 129.148438 10.804688 C 129.757812 10.804688 130.253906 10.308594 130.253906 9.703125 C 130.253906 9.097656 129.757812 8.601562 129.148438 8.601562 " fill-opacity="1" fill-rule="nonzero"/><path fill="rgb(15.289307%, 27.449036%, 56.469727%)" d="M 135.441406 8.601562 C 134.832031 8.601562 134.335938 9.097656 134.335938 9.703125 C 134.335938 10.308594 134.832031 10.804688 135.441406 10.804688 C 136.050781 10.804688 136.542969 10.308594 136.542969 9.703125 C 136.542969 9.097656 136.050781 8.601562 135.441406 8.601562 " fill-opacity="1" fill-rule="nonzero"/><g clip-path="url(#clip-64)"><path fill="rgb(15.289307%, 27.449036%, 56.469727%)" d="M 141.730469 8.601562 C 141.121094 8.601562 140.625 9.097656 140.625 9.703125 C 140.625 10.308594 141.121094 10.804688 141.730469 10.804688 C 142.339844 10.804688 142.832031 10.308594 142.832031 9.703125 C 142.832031 9.097656 142.339844 8.601562 141.730469 8.601562 " fill-opacity="1" fill-rule="nonzero"/></g><path fill="rgb(15.289307%, 27.449036%, 56.469727%)" d="M 103.992188 14.828125 C 103.382812 14.828125 102.886719 15.320312 102.886719 15.929688 C 102.886719 16.535156 103.382812 17.027344 103.992188 17.027344 C 104.601562 17.027344 105.097656 16.535156 105.097656 15.929688 C 105.097656 15.320312 104.601562 14.828125 103.992188 14.828125 " fill-opacity="1" fill-rule="nonzero"/><path fill="rgb(15.289307%, 27.449036%, 56.469727%)" d="M 110.28125 14.828125 C 109.671875 14.828125 109.175781 15.320312 109.175781 15.929688 C 109.175781 16.535156 109.671875 17.027344 110.28125 17.027344 C 110.890625 17.027344 111.386719 16.535156 111.386719 15.929688 C 111.386719 15.320312 110.890625 14.828125 110.28125 14.828125 " fill-opacity="1" fill-rule="nonzero"/><path fill="rgb(15.289307%, 27.449036%, 56.469727%)" d="M 116.570312 14.828125 C 115.960938 14.828125 115.46875 15.320312 115.46875 15.929688 C 115.46875 16.535156 115.960938 17.027344 116.570312 17.027344 C 117.179688 17.027344 117.675781 16.535156 117.675781 15.929688 C 117.675781 15.320312 117.179688 14.828125 116.570312 14.828125 " fill-opacity="1" fill-rule="nonzero"/><path fill="rgb(15.289307%, 27.449036%, 56.469727%)" d="M 122.859375 14.828125 C 122.25 14.828125 121.757812 15.320312 121.757812 15.929688 C 121.757812 16.535156 122.25 17.027344 122.859375 17.027344 C 123.46875 17.027344 123.964844 16.535156 123.964844 15.929688 C 123.964844 15.320312 123.46875 14.828125 122.859375 14.828125 " fill-opacity="1" fill-rule="nonzero"/><path fill="rgb(15.289307%, 27.449036%, 56.469727%)" d="M 129.148438 14.828125 C 128.542969 14.828125 128.046875 15.320312 128.046875 15.929688 C 128.046875 16.535156 128.542969 17.027344 129.148438 17.027344 C 129.757812 17.027344 130.253906 16.535156 130.253906 15.929688 C 130.253906 15.320312 129.757812 14.828125 129.148438 14.828125 " fill-opacity="1" fill-rule="nonzero"/><path fill="rgb(15.289307%, 27.449036%, 56.469727%)" d="M 135.441406 14.828125 C 134.832031 14.828125 134.335938 15.320312 134.335938 15.929688 C 134.335938 16.535156 134.832031 17.027344 135.441406 17.027344 C 136.050781 17.027344 136.542969 16.535156 136.542969 15.929688 C 136.542969 15.320312 136.050781 14.828125 135.441406 14.828125 " fill-opacity="1" fill-rule="nonzero"/><g clip-path="url(#clip-65)"><path fill="rgb(15.289307%, 27.449036%, 56.469727%)" d="M 141.730469 14.828125 C 141.121094 14.828125 140.625 15.320312 140.625 15.929688 C 140.625 16.535156 141.121094 17.027344 141.730469 17.027344 C 142.339844 17.027344 142.832031 16.535156 142.832031 15.929688 C 142.832031 15.320312 142.339844 14.828125 141.730469 14.828125 " fill-opacity="1" fill-rule="nonzero"/></g><path fill="rgb(15.289307%, 27.449036%, 56.469727%)" d="M 103.992188 21.09375 C 103.382812 21.09375 102.886719 21.585938 102.886719 22.195312 C 102.886719 22.800781 103.382812 23.292969 103.992188 23.292969 C 104.601562 23.292969 105.097656 22.800781 105.097656 22.195312 C 105.097656 21.585938 104.601562 21.09375 103.992188 21.09375 " fill-opacity="1" fill-rule="nonzero"/><path fill="rgb(15.289307%, 27.449036%, 56.469727%)" d="M 110.28125 21.09375 C 109.671875 21.09375 109.175781 21.585938 109.175781 22.195312 C 109.175781 22.800781 109.671875 23.292969 110.28125 23.292969 C 110.890625 23.292969 111.386719 22.800781 111.386719 22.195312 C 111.386719 21.585938 110.890625 21.09375 110.28125 21.09375 " fill-opacity="1" fill-rule="nonzero"/><path fill="rgb(15.289307%, 27.449036%, 56.469727%)" d="M 116.570312 21.09375 C 115.960938 21.09375 115.46875 21.585938 115.46875 22.195312 C 115.46875 22.800781 115.960938 23.292969 116.570312 23.292969 C 117.179688 23.292969 117.675781 22.800781 117.675781 22.195312 C 117.675781 21.585938 117.179688 21.09375 116.570312 21.09375 " fill-opacity="1" fill-rule="nonzero"/><path fill="rgb(15.289307%, 27.449036%, 56.469727%)" d="M 122.859375 21.09375 C 122.25 21.09375 121.757812 21.585938 121.757812 22.195312 C 121.757812 22.800781 122.25 23.292969 122.859375 23.292969 C 123.46875 23.292969 123.964844 22.800781 123.964844 22.195312 C 123.964844 21.585938 123.46875 21.09375 122.859375 21.09375 " fill-opacity="1" fill-rule="nonzero"/><path fill="rgb(15.289307%, 27.449036%, 56.469727%)" d="M 129.148438 21.09375 C 128.542969 21.09375 128.046875 21.585938 128.046875 22.195312 C 128.046875 22.800781 128.542969 23.292969 129.148438 23.292969 C 129.757812 23.292969 130.253906 22.800781 130.253906 22.195312 C 130.253906 21.585938 129.757812 21.09375 129.148438 21.09375 " fill-opacity="1" fill-rule="nonzero"/><path fill="rgb(15.289307%, 27.449036%, 56.469727%)" d="M 135.441406 21.09375 C 134.832031 21.09375 134.335938 21.585938 134.335938 22.195312 C 134.335938 22.800781 134.832031 23.292969 135.441406 23.292969 C 136.050781 23.292969 136.542969 22.800781 136.542969 22.195312 C 136.542969 21.585938 136.050781 21.09375 135.441406 21.09375 " fill-opacity="1" fill-rule="nonzero"/><g clip-path="url(#clip-66)"><path fill="rgb(15.289307%, 27.449036%, 56.469727%)" d="M 141.730469 21.09375 C 141.121094 21.09375 140.625 21.585938 140.625 22.195312 C 140.625 22.800781 141.121094 23.292969 141.730469 23.292969 C 142.339844 23.292969 142.832031 22.800781 142.832031 22.195312 C 142.832031 21.585938 142.339844 21.09375 141.730469 21.09375 " fill-opacity="1" fill-rule="nonzero"/></g><path fill="rgb(15.289307%, 27.449036%, 56.469727%)" d="M 103.992188 27.355469 C 103.382812 27.355469 102.886719 27.851562 102.886719 28.457031 C 102.886719 29.066406 103.382812 29.558594 103.992188 29.558594 C 104.601562 29.558594 105.097656 29.066406 105.097656 28.457031 C 105.097656 27.851562 104.601562 27.355469 103.992188 27.355469 " fill-opacity="1" fill-rule="nonzero"/><path fill="rgb(15.289307%, 27.449036%, 56.469727%)" d="M 110.28125 27.355469 C 109.671875 27.355469 109.175781 27.851562 109.175781 28.457031 C 109.175781 29.066406 109.671875 29.558594 110.28125 29.558594 C 110.890625 29.558594 111.386719 29.066406 111.386719 28.457031 C 111.386719 27.851562 110.890625 27.355469 110.28125 27.355469 " fill-opacity="1" fill-rule="nonzero"/><path fill="rgb(15.289307%, 27.449036%, 56.469727%)" d="M 116.570312 27.355469 C 115.960938 27.355469 115.46875 27.851562 115.46875 28.457031 C 115.46875 29.066406 115.960938 29.558594 116.570312 29.558594 C 117.179688 29.558594 117.675781 29.066406 117.675781 28.457031 C 117.675781 27.851562 117.179688 27.355469 116.570312 27.355469 " fill-opacity="1" fill-rule="nonzero"/><path fill="rgb(15.289307%, 27.449036%, 56.469727%)" d="M 122.859375 27.355469 C 122.25 27.355469 121.757812 27.851562 121.757812 28.457031 C 121.757812 29.066406 122.25 29.558594 122.859375 29.558594 C 123.46875 29.558594 123.964844 29.066406 123.964844 28.457031 C 123.964844 27.851562 123.46875 27.355469 122.859375 27.355469 " fill-opacity="1" fill-rule="nonzero"/><path fill="rgb(15.289307%, 27.449036%, 56.469727%)" d="M 129.148438 27.355469 C 128.542969 27.355469 128.046875 27.851562 128.046875 28.457031 C 128.046875 29.066406 128.542969 29.558594 129.148438 29.558594 C 129.757812 29.558594 130.253906 29.066406 130.253906 28.457031 C 130.253906 27.851562 129.757812 27.355469 129.148438 27.355469 " fill-opacity="1" fill-rule="nonzero"/><path fill="rgb(15.289307%, 27.449036%, 56.469727%)" d="M 135.441406 27.355469 C 134.832031 27.355469 134.335938 27.851562 134.335938 28.457031 C 134.335938 29.066406 134.832031 29.558594 135.441406 29.558594 C 136.050781 29.558594 136.542969 29.066406 136.542969 28.457031 C 136.542969 27.851562 136.050781 27.355469 135.441406 27.355469 " fill-opacity="1" fill-rule="nonzero"/><g clip-path="url(#clip-67)"><path fill="rgb(15.289307%, 27.449036%, 56.469727%)" d="M 141.730469 27.355469 C 141.121094 27.355469 140.625 27.851562 140.625 28.457031 C 140.625 29.066406 141.121094 29.558594 141.730469 29.558594 C 142.339844 29.558594 142.832031 29.066406 142.832031 28.457031 C 142.832031 27.851562 142.339844 27.355469 141.730469 27.355469 " fill-opacity="1" fill-rule="nonzero"/></g><path fill="rgb(15.289307%, 27.449036%, 56.469727%)" d="M 103.992188 33.582031 C 103.382812 33.582031 102.886719 34.074219 102.886719 34.683594 C 102.886719 35.289062 103.382812 35.785156 103.992188 35.785156 C 104.601562 35.785156 105.097656 35.289062 105.097656 34.683594 C 105.097656 34.074219 104.601562 33.582031 103.992188 33.582031 " fill-opacity="1" fill-rule="nonzero"/><path fill="rgb(15.289307%, 27.449036%, 56.469727%)" d="M 110.28125 33.582031 C 109.671875 33.582031 109.175781 34.074219 109.175781 34.683594 C 109.175781 35.289062 109.671875 35.785156 110.28125 35.785156 C 110.890625 35.785156 111.386719 35.289062 111.386719 34.683594 C 111.386719 34.074219 110.890625 33.582031 110.28125 33.582031 " fill-opacity="1" fill-rule="nonzero"/><path fill="rgb(15.289307%, 27.449036%, 56.469727%)" d="M 116.570312 33.582031 C 115.960938 33.582031 115.46875 34.074219 115.46875 34.683594 C 115.46875 35.289062 115.960938 35.785156 116.570312 35.785156 C 117.179688 35.785156 117.675781 35.289062 117.675781 34.683594 C 117.675781 34.074219 117.179688 33.582031 116.570312 33.582031 " fill-opacity="1" fill-rule="nonzero"/><path fill="rgb(15.289307%, 27.449036%, 56.469727%)" d="M 122.859375 33.582031 C 122.25 33.582031 121.757812 34.074219 121.757812 34.683594 C 121.757812 35.289062 122.25 35.785156 122.859375 35.785156 C 123.46875 35.785156 123.964844 35.289062 123.964844 34.683594 C 123.964844 34.074219 123.46875 33.582031 122.859375 33.582031 " fill-opacity="1" fill-rule="nonzero"/><path fill="rgb(15.289307%, 27.449036%, 56.469727%)" d="M 129.148438 33.582031 C 128.542969 33.582031 128.046875 34.074219 128.046875 34.683594 C 128.046875 35.289062 128.542969 35.785156 129.148438 35.785156 C 129.757812 35.785156 130.253906 35.289062 130.253906 34.683594 C 130.253906 34.074219 129.757812 33.582031 129.148438 33.582031 " fill-opacity="1" fill-rule="nonzero"/><path fill="rgb(15.289307%, 27.449036%, 56.469727%)" d="M 135.441406 33.582031 C 134.832031 33.582031 134.335938 34.074219 134.335938 34.683594 C 134.335938 35.289062 134.832031 35.785156 135.441406 35.785156 C 136.050781 35.785156 136.542969 35.289062 136.542969 34.683594 C 136.542969 34.074219 136.050781 33.582031 135.441406 33.582031 " fill-opacity="1" fill-rule="nonzero"/><g clip-path="url(#clip-68)"><path fill="rgb(15.289307%, 27.449036%, 56.469727%)" d="M 141.730469 33.582031 C 141.121094 33.582031 140.625 34.074219 140.625 34.683594 C 140.625 35.289062 141.121094 35.785156 141.730469 35.785156 C 142.339844 35.785156 142.832031 35.289062 142.832031 34.683594 C 142.832031 34.074219 142.339844 33.582031 141.730469 33.582031 " fill-opacity="1" fill-rule="nonzero"/></g><g clip-path="url(#clip-69)"><path fill="rgb(15.289307%, 27.449036%, 56.469727%)" d="M 103.992188 39.886719 C 103.382812 39.886719 102.886719 40.382812 102.886719 40.988281 C 102.886719 41.59375 103.382812 42.089844 103.992188 42.089844 C 104.601562 42.089844 105.097656 41.59375 105.097656 40.988281 C 105.097656 40.382812 104.601562 39.886719 103.992188 39.886719 " fill-opacity="1" fill-rule="nonzero"/></g><g clip-path="url(#clip-70)"><path fill="rgb(15.289307%, 27.449036%, 56.469727%)" d="M 110.28125 39.886719 C 109.671875 39.886719 109.175781 40.382812 109.175781 40.988281 C 109.175781 41.59375 109.671875 42.089844 110.28125 42.089844 C 110.890625 42.089844 111.386719 41.59375 111.386719 40.988281 C 111.386719 40.382812 110.890625 39.886719 110.28125 39.886719 " fill-opacity="1" fill-rule="nonzero"/></g><g clip-path="url(#clip-71)"><path fill="rgb(15.289307%, 27.449036%, 56.469727%)" d="M 116.570312 39.886719 C 115.960938 39.886719 115.46875 40.382812 115.46875 40.988281 C 115.46875 41.59375 115.960938 42.089844 116.570312 42.089844 C 117.179688 42.089844 117.675781 41.59375 117.675781 40.988281 C 117.675781 40.382812 117.179688 39.886719 116.570312 39.886719 " fill-opacity="1" fill-rule="nonzero"/></g><g clip-path="url(#clip-72)"><path fill="rgb(15.289307%, 27.449036%, 56.469727%)" d="M 122.859375 39.886719 C 122.25 39.886719 121.757812 40.382812 121.757812 40.988281 C 121.757812 41.59375 122.25 42.089844 122.859375 42.089844 C 123.46875 42.089844 123.964844 41.59375 123.964844 40.988281 C 123.964844 40.382812 123.46875 39.886719 122.859375 39.886719 " fill-opacity="1" fill-rule="nonzero"/></g><g clip-path="url(#clip-73)"><path fill="rgb(15.289307%, 27.449036%, 56.469727%)" d="M 129.148438 39.886719 C 128.542969 39.886719 128.046875 40.382812 128.046875 40.988281 C 128.046875 41.59375 128.542969 42.089844 129.148438 42.089844 C 129.757812 42.089844 130.253906 41.59375 130.253906 40.988281 C 130.253906 40.382812 129.757812 39.886719 129.148438 39.886719 " fill-opacity="1" fill-rule="nonzero"/></g><g clip-path="url(#clip-74)"><path fill="rgb(15.289307%, 27.449036%, 56.469727%)" d="M 135.441406 39.886719 C 134.832031 39.886719 134.335938 40.382812 134.335938 40.988281 C 134.335938 41.59375 134.832031 42.089844 135.441406 42.089844 C 136.050781 42.089844 136.542969 41.59375 136.542969 40.988281 C 136.542969 40.382812 136.050781 39.886719 135.441406 39.886719 " fill-opacity="1" fill-rule="nonzero"/></g><g clip-path="url(#clip-75)"><path fill="rgb(15.289307%, 27.449036%, 56.469727%)" d="M 141.730469 39.886719 C 141.121094 39.886719 140.625 40.382812 140.625 40.988281 C 140.625 41.59375 141.121094 42.089844 141.730469 42.089844 C 142.339844 42.089844 142.832031 41.59375 142.832031 40.988281 C 142.832031 40.382812 142.339844 39.886719 141.730469 39.886719 " fill-opacity="1" fill-rule="nonzero"/></g></svg>